<?xml version="1.0" encoding="utf-8"?>
<!-- Generator: Adobe Illustrator 16.0.0, SVG Export Plug-In . SVG Version: 6.00 Build 0)  -->
<!DOCTYPE svg PUBLIC "-//W3C//DTD SVG 1.1//EN" "http://www.w3.org/Graphics/SVG/1.1/DTD/svg11.dtd">
<svg version="1.1" xmlns="http://www.w3.org/2000/svg" xmlns:xlink="http://www.w3.org/1999/xlink" x="0px" y="0px" width="100%"
	 height="100%" viewBox="0 0 269.3 159.3" style="enable-background:new 0 0 269.3 159.3;" xml:space="preserve">
<style type="text/css">
<![CDATA[
	.st0{fill:#FFFFFF;}
]]>
</style>
<g id="Crest">
	<g>
		<path class="st0" d="M109,96c-0.1,0.2-0.2,0.3-0.4,0.4"/>
		<path class="st0" d="M112.6,68c0.4,0,0.8-0.3,0.8-0.8s-0.3-0.8-0.8-0.8c-0.4,0-0.7,0.3-0.7,0.8S112.1,68,112.6,68L112.6,68z"/>
		<path class="st0" d="M147.3,36.3L147.3,36.3l-27,0v0h0l0,21.8c0,2.1,0.9,3.9,2.1,4.5l10.4,6.2c0.2,0.3,0.6,0.4,0.9,0.4
			c0.3,0,0.6-0.1,0.8-0.3l10.6-6.3c1.2-0.6,2.1-2.4,2.1-4.5L147.3,36.3L147.3,36.3L147.3,36.3z M129.3,42.6h-2.3v-5.6h2.3V42.6
			L129.3,42.6z M127.6,44.6l0.3-0.3l-0.2-0.4l0.4,0l0.3-0.5l0.3,0.5l0.4,0l-0.2,0.4l0.3,0.3l-0.4,0.1v0.5l-0.4-0.3l-0.4,0.3v-0.5
			L127.6,44.6L127.6,44.6z M121,51.5v-5.3h2.8v5.3H121L121,51.5z M121.5,43.9l0.4,0l0.3-0.5l0.3,0.5l0.4,0l-0.2,0.4l0.3,0.3
			l-0.4,0.1v0.5l-0.4-0.3l-0.4,0.3v-0.5l-0.4-0.1l0.3-0.3L121.5,43.9L121.5,43.9z M124.7,49.3l0.4,0l0.3-0.5l0.3,0.5l0.4,0l-0.2,0.4
			l0.3,0.3l-0.4,0.1v0.5l-0.4-0.3l-0.4,0.3v-0.5l-0.4-0.1l0.3-0.3L124.7,49.3L124.7,49.3z M126.6,45c0-0.1-0.2-0.2-0.3-0.2
			c-0.3,0-0.4,0.4-0.6,0.4c-0.2,0-0.3,0-0.3-0.2c0-0.1,0.3-0.3,0.4-0.4c-1.8,0-1.8,0.8-2.1,0.8c-0.5,0,0.4-0.8,0.6-1.1
			c-0.4-0.1-0.6-0.5-0.9-0.7c0.2-0.3,0.3-0.1,0.5,0c0-0.2,0.1-0.4,0.5-0.4c0.8,0,0.6,0.8,0.7,0.8c0.1,0,0-0.8,0.5-0.8
			c0.8,0,1.7,2,0.9,2C126.3,45.3,126.6,45,126.6,45L126.6,45z M124.6,39.2l0.3-0.3l-0.2-0.4l0.4,0l0.3-0.5l0.3,0.5l0.4,0l-0.2,0.4
			l0.3,0.3l-0.4,0.1v0.5l-0.4-0.3l-0.4,0.3v-0.5L124.6,39.2L124.6,39.2z M123.9,37.1v5.6H121v-5.6H123.9L123.9,37.1z M129.3,65.9
			l-6.5-3.9c-1.1-0.7-1.6-2-1.8-3.6v-6.1h8.2V65.9L129.3,65.9z M126.9,51.5v-5.3h2.3v5.3H126.9L126.9,51.5z M137.6,66.3l-3,1.8h-0.1
			c-0.2,0.2-0.5,0.3-0.8,0.3c-0.3,0-0.6-0.1-0.8-0.3l-3-1.8v-14h7.6V66.3L137.6,66.3z M137.6,51.5H130V37.1h7.6V51.5L137.6,51.5z
			 M146.5,58.4c-0.1,1.6-0.7,2.9-1.8,3.6l-6.5,3.9V52.3h8.2V58.4L146.5,58.4z M146.5,51.5h-8.2V37.1h8.2V51.5L146.5,51.5z"/>
		<path class="st0" d="M128.8,57.3c0-0.1-1,0.3-0.7,0.3c0-0.3,0.6-0.9,0.8-1.1c0-0.3-0.5,0-0.9,0.2c1.5-2.2,0.6-1.3-0.3-1.1
			c1.4-1.5,1-1.5,0-1c0.8-0.6,1-1.4,0.8-1.6c-0.7,1-1.4,0.8-1.4,1.8c0,0.6-0.2,1.6-0.5,1.9c-0.4,0.4-0.1-1.6-1.1-1.6
			c-0.3,0-1.1,0-1.4,0.4c0.2,0,0.5,0.5,0.5,0.8c0,0.2,0.2,0.8-0.2,0.8s-0.8-0.8-0.8-1.1c0-0.4,0-0.3,0-0.8c0-0.9-1.4-2.1-2-2.1
			c0,0.6,0.8,0.8,0.8,1.5c-0.3,0-0.8-0.6-0.8-0.2c0,0.4,0.5,0.5,0.5,0.8c0,0.3-0.6-0.1-0.6,0.2c0,0.3,0.3,0.3,0.4,0.6
			c-0.2-0.1-0.4,0-0.5,0.1c0,0.1,0.1,0.2,0.2,0.3c-0.1,0.1-0.2,0.3-0.2,0.8c0,1.7,1.1,2.5,1.9,2.5c0.6,0,0.5-0.4,0.5-0.6
			c0,0.3,0.3-0.1,0.3,0.4c0,0.5-0.5,0.3-0.5,0.8c0,0.6,0.9,0,0.9,0.7c0,0.8-0.1,0.8-0.1,1.1c0,0.2,0.9-0.3,0.8-0.4
			c0.2,0.1,0.2,0.7,0.6,0.7c0.3,0,0.3-0.7,0.5-0.7c-0.1,0,0.8,0.6,0.8,0.3c0-0.8-0.3-0.5-0.3-1c0-0.5,1.1-0.4,0.9-0.7
			c-0.1-0.2-0.2-0.1-0.4-0.5c0,0.1-0.9-1.3,0.2-0.6C128.8,59.8,128.9,57.4,128.8,57.3L128.8,57.3z"/>
		<path class="st0" d="M157.6,63c0.5,0,0.9-0.4,0.9-0.8c0-0.4-0.4-0.8-0.9-0.8c-0.5,0-0.9,0.4-0.9,0.8C156.8,62.6,157.1,63,157.6,63
			L157.6,63z"/>
		<path class="st0" d="M154,65.1c0.5,0,0.9-0.4,0.9-0.8s-0.4-0.8-0.9-0.8c-0.5,0-0.9,0.4-0.9,0.8S153.6,65.1,154,65.1L154,65.1z"/>
		<path class="st0" d="M111.3,70c0.5,0,0.9-0.4,0.9-0.8c0-0.4-0.4-0.8-0.9-0.8c-0.5,0-0.9,0.4-0.9,0.8C110.5,69.7,110.9,70,111.3,70
			L111.3,70z"/>
		<path class="st0" d="M114.1,70.3c0.5,0,0.9-0.4,0.9-0.8c0-0.4-0.4-0.8-0.9-0.8c-0.5,0-0.9,0.4-0.9,0.8
			C113.2,69.9,113.6,70.3,114.1,70.3L114.1,70.3z"/>
		<path class="st0" d="M191,33c1.3,1.6,1.6,4.1,0.7,5.9c-0.5,0-0.4-0.7-0.5-1.1c-0.9-1.8-1.7-4-0.8-6C190.9,31.9,190.7,32.7,191,33
			L191,33z"/>
		<path class="st0" d="M78.2,35.2c-0.3,1.1-0.3,2.7,0,3.7c-0.2,0.2-0.2-0.2-0.4-0.2c-1.8-1.3-1-3.9-1.5-5.8c0.1-0.1,0.3-0.2,0.5-0.1
			C77.6,33.4,78,34.2,78.2,35.2L78.2,35.2z"/>
		<path class="st0" d="M195,35.3c0.3,0.5-0.2,1-0.6,1.3c-0.4,0.1-0.9-0.1-1.2-0.5c-0.1-0.5,0.1-1,0.6-1.2
			C194.3,34.8,194.8,34.9,195,35.3L195,35.3z"/>
		<path class="st0" d="M75.3,37.4c-0.1,0.4-0.2,0.9-0.6,1c-0.3,0-0.7,0-0.9-0.2c-0.3-0.2-0.3-0.7-0.2-1c0.2-0.3,0.6-0.4,0.9-0.4
			C74.8,36.9,75.2,37,75.3,37.4L75.3,37.4z"/>
		<path class="st0" d="M196.9,38.2c0.1,0.3,0.1,0.5,0,0.8c-0.3,0.4-0.8,0.6-1.3,0.4c-0.3-0.2-0.4-0.5-0.5-0.8
			c0.1-0.4,0.5-0.7,0.8-0.9C196.3,37.7,196.6,38,196.9,38.2L196.9,38.2z"/>
		<path class="st0" d="M194.2,38.2c0.4,0.2,0.1,0.7,0,0.9c-0.2,0.2-0.6,0.6-1,0.5c-0.2-0.2-0.5-0.2-0.6-0.6c0-0.5,0.2-0.9,0.7-1.1
			C193.7,37.9,193.9,38.1,194.2,38.2L194.2,38.2z"/>
		<path class="st0" d="M190.8,39c0,0.5,0,1.2-0.6,1.3c-0.6,0.2-0.9-0.3-1.1-0.7c0-0.5,0.2-0.9,0.7-1.1
			C190.2,38.4,190.5,38.7,190.8,39L190.8,39z"/>
		<path class="st0" d="M80.4,39.2c0.1,0.5-0.3,0.8-0.6,1c-0.3,0.1-0.8-0.2-0.9-0.5c-0.3-0.3,0.1-0.6,0.2-0.9
			C79.6,38.3,80.3,38.7,80.4,39.2L80.4,39.2z"/>
		<path class="st0" d="M77.6,39.3c0,0.4-0.2,0.8-0.5,0.9c-0.4,0.1-0.8-0.1-0.9-0.4c-0.2-0.5,0-0.9,0.4-1.1
			C77.1,38.5,77.4,39,77.6,39.3L77.6,39.3z"/>
		<path class="st0" d="M179.4,39.5c0.5,1,0.8,2.2,0.9,3.4c-0.2,0.9,0.1,2.1-0.5,2.7c-0.7-0.2-0.7-1-1.1-1.5
			c-0.8-1.7-0.1-3.6,0.2-5.2C179.2,38.8,179.2,39.3,179.4,39.5L179.4,39.5z"/>
		<path class="st0" d="M75.4,40.1c0.1,0.6-0.3,0.9-0.6,1.2c-0.6,0.1-0.9-0.3-1.2-0.7c0-0.5,0.2-0.9,0.6-1.1
			C74.7,39.4,75.2,39.7,75.4,40.1L75.4,40.1z"/>
		<path class="st0" d="M186.8,41.5c0.6,1.4,0.7,3,0.2,4.6l-0.3,0.2c-0.7-1.3-1.6-2.5-1.9-3.8c0-1,0.2-1.9,0.6-2.7
			c0.3-0.2,0.5,0,0.7,0.3C186.1,40.6,186.3,41.2,186.8,41.5L186.8,41.5z"/>
		<path class="st0" d="M192.7,40.6c0,0.5-0.2,1-0.7,1.1c-0.5,0.1-0.9,0-1.1-0.6c-0.1-0.5,0.1-0.9,0.5-1.1
			C192,39.8,192.5,40.2,192.7,40.6L192.7,40.6z"/>
		<path class="st0" d="M77.7,42.1c0,0.4-0.3,0.8-0.7,0.9c-0.4,0.3-0.7-0.2-1-0.3c-0.1-0.4-0.2-0.7,0-1.1c0.1-0.3,0.5-0.3,0.8-0.4
			C77.2,41.4,77.6,41.6,77.7,42.1L77.7,42.1z"/>
		<path class="st0" d="M79.7,41.8c0.2,0.5-0.3,0.7-0.5,0.9c-0.6,0.2-0.8-0.2-1.1-0.6c-0.1-0.5,0.2-0.8,0.5-1
			C79.2,41,79.5,41.4,79.7,41.8L79.7,41.8z"/>
		<path class="st0" d="M194.1,41.7c0,0.6-1,1.2-1.1,1.9c-0.5,1.3-1.6,2.2-2.9,2.7c-0.3,0.2-0.7,0.6-1.1,0.6
			c-0.1-0.9,0.8-1.8,1.3-2.7C191.2,42.9,192.6,42.1,194.1,41.7L194.1,41.7z"/>
		<path class="st0" d="M76.7,43.7c0.7,0.8,1.1,1.5,1.9,2.2c0,0.2-0.1,0.5-0.3,0.5c-2.3-0.1-3.9-2.5-5-4.2c0.1-0.5,0.8-0.1,1.1-0.1
			C75.2,42.7,76.1,42.9,76.7,43.7L76.7,43.7z"/>
		<path class="st0" d="M194.7,44.4c-0.1,2-1.1,4.1-2.9,5.1c-0.5,0.2-1.1,0.7-1.6,0.4c1-2,2.5-3.7,4.1-5.5H194.7L194.7,44.4z"/>
		<path class="st0" d="M185.7,45.7c0.1,0.7-0.2,1.1-0.8,1.4c-0.5,0-0.8-0.4-1.1-0.8c0-0.5,0.2-0.9,0.7-1c0.1-0.1,0.4-0.1,0.6-0.1
			C185.3,45.3,185.4,45.5,185.7,45.7L185.7,45.7z"/>
		<path class="st0" d="M74.1,46.2c0.9,0.6,1.7,1.5,2.5,2.2c-0.6,0.4-1.4,0-2.1,0c-1.6-0.6-2.7-1.9-4.3-2.4c0-0.5,0.7-0.3,1-0.5
			C72.3,45.5,73.1,45.9,74.1,46.2L74.1,46.2z"/>
		<path class="st0" d="M124.6,32.1c-2.6-1-4.4,1.7-7.1,1.4c-0.3,0.2-0.2,0.5-0.4,0.8c-0.1,0.1-0.4,0-0.5,0c-0.1-1.1-0.5-2.2-0.7-3.3
			c-0.3-0.5-0.1-1.1-0.4-1.6c-1.5-4.1,3.7-1,4.7-3.4c0.9-2.1-1.7-2.3-2.5-3.8v-0.6c-0.8-0.8-1.6-1-2-2c0.3-1.2,0.5-2.5,0.1-3.7
			c0-0.3-0.2-0.7-0.7-0.5c-0.9,1.2-1.6,2.2-2.4,3.4c-0.9-0.7-1.7-1.5-2.8-2.1c-0.7-0.1-1.4-0.8-2.2-0.5c-0.1,0.3,0,0.5,0.1,0.7
			c0,1.9,1,3.3,2.3,4.7l0.1,0.7c-0.8,1.9-0.6,4.2-0.8,6.3c-2.1,5.4-5.6,10.6-10.2,14.4c-2.7,3-5.9,6-6.3,10.2
			c-0.1,0.7,0.1,1.5-0.4,1.9c-1.6-0.6-3.1-1.3-4.4-2.3c-2.2-1.5-5.3-1.3-6.7-4.1c-0.6-1.1,0.1-2.2,0.7-3c1.6-1.5,1.4-4.2,0.5-6.1
			c-0.2,0-0.2,0.2-0.4,0.2c-0.1,2.8-2.4,4.7-1.5,7.8c0.2,0.9,0.7,1.5,0.9,2.3c-0.3-0.1-0.8-0.1-1.1-0.2c-1-0.1-2.1-0.6-3.2-0.4
			c-2.2,1-5.1-0.2-6.9,1.8c-0.3,0-0.7,0.1-0.6,0.5c1,0,2,0.3,3.1,0.2c1.6,0.3,2.7-1.1,3.9-1.7h0.3c0.5-0.5,1.3-0.2,1.9-0.3
			c3,0.3,5.3,1.8,7.7,3.2v0.2c-0.9,0.4-2,0.7-3,1.2c-1.1,0.8-2.3,1.9-2.6,3.2c-0.8,1.2,0.2,2.2,0.7,3.2c0,0.5,0.1,1,0.5,1.2
			c1.5-1.6,0.1-3.6,0.3-5.5c0.4-1.4,1.7-2.1,3.1-2.5c2.7-1.1,4.6,1,6.8,2.3c0,2.2,0.2,4.3-0.2,6.4c-0.7,0.2-1.5,0.4-2.2,0.3
			c-3.7,0.3-6.6,2.3-10,3.5c-1.5,0.5-3.3,0.5-4.8,1c1.2,0.3,2.4-0.1,3.6-0.1c4.6-0.7,8.2-4.2,13.1-3.6l0.1,0.1
			c-0.6,1.2-1.3,2.2-2.2,3.1c-0.1-0.5-0.2-0.9-0.7-1.2c-0.4-0.2-0.8,0-1.1,0.4c-0.1,0.2-0.1,0.5,0,0.7c0.2,0.4,0.6,0.5,1,0.7
			c-0.1,0.4-0.6,0.6-0.9,1c-1.3,2.2-4,1.3-5.6,2.9c-0.2,0.3-1.1,0.5-0.7,1c1.8,0.2,3.5-0.3,4.9-1.2c1.7-1.9,3.6-3.8,5.3-5.6
			c0.3,1.5-0.1,3.1-1,4.3c-0.4-0.2-0.8-0.6-1.3-0.7c-0.5,0.1-0.8,0.6-0.8,1c0.2,0.3,0.4,0.7,0.7,0.9c-1.6,1.1-3.6,1.2-5.5,1.8
			c-3.4,0.4-6.8,0.7-10.3,0.8c-1.6-0.1-3.5,0.5-5.1,0c-1.8,0.3-3.7-0.2-5.2,0.8c-0.2,0.2,0,0.5,0,0.7c2.2,1.4,5.1,0.3,7.6,0.7h18.6
			c1.4,0,2.7-0.1,3.8-0.7c2.4-1.4,3.7-3.8,4.9-6.3c0.5-0.9,0.8-1.9,1-2.8c0.5-1.6,1.9-2.8,3.5-2.9c0.2,2.5-0.2,4.9-0.8,7.2
			c-0.3,1.5-1.3,3-0.7,4.6c0.1,0.8,0.9,0.8,1.6,0.9c5.7-0.1,11.4-0.3,17.4,0.1c1.1,0.2,2,0.5,3.2,0.5c0.1-0.1,0.4-0.2,0.3-0.5
			c-0.1-0.5-0.5-1.2-1.1-1.3c-0.1-0.3-0.5-0.2-0.7-0.4c-3-1.7-6.6-0.8-10.2-0.8c-1.8,0.2-3.7,0.5-5.2-0.5c-0.7-0.9-0.2-3.6-0.2-3.6
			c0-1.1,2.6-8.5,2.9-9.2c0.1-0.7,0.4-1.4,0.3-2.2c0.4-0.9,0.3-2.2,0.3-3.2c0.2-1.5,0.9-2.9,1.5-4.4c0.3-0.7,0.5-1.5,0.8-2.2
			c0.3-0.9,0.4-1.8,0.9-2.5c1.5,1,3,0.9,3.8,2.7l0.7,4c0,0.2,0.2,0.7,0.5,0.4c1.2-0.8,0.8-2.6,0.8-3.8c0.3-1.5-0.8-2.2-1.2-3.5
			c-0.3-0.2-0.9-1.4-0.9-1.4c-0.2-1-2.5-1.8-2-3c0.3-1.1,0.6-2.1,1.6-2.7c0.2,0.1,0.2,0.2,0.2,0.3l0.6-0.4l0.1-4
			c1.5,0,3.8,0.2,5.4,0.2c0.4,0.1,0.8,0.5,1.2,0.5l0.4-0.5l3.8-0.7C127.1,34,126.1,32.1,124.6,32.1L124.6,32.1z"/>
		<path class="st0" d="M128.7,33.8c0.1,0,0.2,0,0.4-0.1L128.7,33.8L128.7,33.8z"/>
		<path class="st0" d="M87.7,47c0,0.6-0.3,0.9-0.7,1.1c-0.4-0.1-0.7-0.2-0.9-0.6c-0.2-0.5,0.3-0.9,0.7-1.1
			C87.1,46.5,87.6,46.6,87.7,47L87.7,47z"/>
		<path class="st0" d="M84.6,47c0.3,0.3,0.3,0.8,0.2,1.1c-0.3,0.3-0.8,0.5-1.1,0.1c-0.3-0.3-0.6-0.6-0.3-1
			C83.7,46.9,84.3,46.6,84.6,47L84.6,47z"/>
		<path class="st0" d="M150.2,47.5C150.2,47.6,150.3,47.6,150.2,47.5"/>
		<path class="st0" d="M186.1,48.3c0.2,0.5-0.2,0.9-0.6,1.1c-0.5-0.1-1.1-0.2-1.1-0.9c0-0.4,0.4-0.6,0.7-0.7
			C185.6,47.7,185.9,48.1,186.1,48.3L186.1,48.3z"/>
		<path class="st0" d="M188.6,48.3c0.1,0.2,0.5,0.6,0.1,0.9c-0.2,0.1-0.3,0.2-0.5,0.4c-0.5,0.1-1-0.1-1.1-0.6
			c-0.1-0.5,0.3-0.8,0.7-1C188.2,47.8,188.4,48.1,188.6,48.3L188.6,48.3z"/>
		<path class="st0" d="M72.8,48.8c-0.2,0.6-0.7,0.8-1.3,0.6c-0.1-0.1-0.3-0.4-0.4-0.6c0-0.3,0.1-0.7,0.5-0.8
			C72.3,48.1,72.7,48.3,72.8,48.8L72.8,48.8z"/>
		<path class="st0" d="M88.7,49.6c0,0.4-0.5,0.7-0.8,0.9c-0.5,0-0.8-0.3-1-0.7c0-0.4,0.2-0.9,0.6-0.9C87.9,48.7,88.5,49.1,88.7,49.6
			L88.7,49.6z"/>
		<path class="st0" d="M85.9,49.3c0.1,0.1,0.3,0.5,0.1,0.8c-0.3,0.2-0.7,0.7-1.2,0.4c-0.3-0.2-0.6-0.4-0.5-0.9
			c0.2-0.2,0.4-0.5,0.7-0.6C85.4,48.9,85.6,49.1,85.9,49.3L85.9,49.3z"/>
		<path class="st0" d="M195.8,49.9c0,0.4-0.4,0.8-0.6,0.9c-0.4,0.1-0.8,0-1-0.2c-0.3-0.1-0.2-0.5-0.2-0.7c0.2-0.3,0.6-0.5,0.9-0.6
			C195.3,49.3,195.6,49.6,195.8,49.9L195.8,49.9z"/>
		<path class="st0" d="M198.9,50.3c-0.1,0.4-0.5,0.8-0.9,0.9c-0.3,0-0.8-0.1-0.7-0.6c0-0.3,0.2-0.7,0.4-0.8
			C198.1,49.6,198.7,49.8,198.9,50.3L198.9,50.3z"/>
		<path class="st0" d="M78.2,51c0.1,0.6-0.1,0.9-0.6,1.1c-0.3,0.2-0.7,0-0.9-0.2c-0.2-0.2-0.4-0.6-0.2-0.9c0.1-0.4,0.5-0.3,0.8-0.5
			C77.7,50.4,78,50.6,78.2,51L78.2,51z"/>
		<path class="st0" d="M80.5,51.4c0.1,0.4-0.3,0.5-0.4,0.8c-0.2,0.1-0.6,0.3-0.8,0.1c-0.3-0.3-0.7-0.7-0.4-1.1
			C79.3,50.4,80.3,50.8,80.5,51.4L80.5,51.4z"/>
		<path class="st0" d="M193.1,51.1c0,0.5-0.4,0.8-0.7,1.1c-0.4,0.1-0.8-0.2-0.9-0.6c0-0.4,0.2-0.7,0.5-0.9
			C192.4,50.7,192.8,50.8,193.1,51.1L193.1,51.1z"/>
		<path class="st0" d="M196.9,51.9c-0.1,0.4,0,0.9-0.5,1.2c-0.4,0.1-0.8,0-1.1-0.2c-0.3-0.2-0.3-0.7-0.2-1c0.2-0.4,0.7-0.7,1.1-0.6
			C196.5,51.5,196.6,51.8,196.9,51.9L196.9,51.9z"/>
		<path class="st0" d="M76.4,52.9c0.2,0.4-0.2,0.5-0.4,0.7c-0.3,0.2-0.7,0-0.9-0.1c-0.3-0.2-0.2-0.7-0.1-0.9
			C75.4,51.8,76.2,52.3,76.4,52.9L76.4,52.9z"/>
		<path class="st0" d="M194,53.8c0.2,0,0.1,0.3,0,0.4c-1.1,0.6-2.8,0.7-3.8-0.2c-0.6-0.5-1.3-0.7-1.9-1c0.2-0.6,1.1-0.6,1.7-0.7
			C191.4,52.5,192.4,53.8,194,53.8L194,53.8z"/>
		<path class="st0" d="M78.7,53.4c0.1,0.4-0.2,0.5-0.3,0.8c-0.2,0.3-0.6,0.2-0.8,0.1c-0.4-0.3-0.6-0.8-0.3-1.2
			C77.8,52.6,78.4,52.9,78.7,53.4L78.7,53.4z"/>
		<path class="st0" d="M82.8,53.7c0.2,0.4-0.1,0.8-0.5,1c-0.3,0.2-0.6-0.1-0.9-0.1c-0.2-0.3-0.7-0.7-0.2-1.1
			C81.6,52.8,82.5,53.1,82.8,53.7L82.8,53.7z"/>
		<path class="st0" d="M137.3,55.7c-0.1,0.9-1.7-0.1-1.4,1.1c0.2,0.9,0.4,2,0.9,2.7c0.4,0.6,0.2,1.6,0.2,2.4
			c-0.4,0.7-1.1,1.2-1.8,1.5c-1.3-0.1-3.3,0.7-3.9-1c-0.3-0.7-0.8-1.4-0.8-2.3c0.1-0.1,0.3-0.1,0.4-0.2c0-0.3-0.4-0.5-0.3-0.8
			c1.5-0.3-0.6-1.6,0.7-1.7c1.1,1.1,2.8,0.8,3.8,2c0.2,0.2,0.4,0.5,0.7,0.6c-0.2-1.1-0.7-2.3-0.9-3.5c-0.1-0.6,0.1-1.2,0.5-1.6
			C136.2,54.3,136.8,55.2,137.3,55.7L137.3,55.7z"/>
		<path class="st0" d="M87,55.4c0.1,0.5-0.2,0.8-0.5,1c-0.4,0.2-0.7-0.3-0.8-0.5c-0.1-0.5,0.2-0.7,0.5-0.9
			C86.4,54.9,86.8,55,87,55.4L87,55.4z"/>
		<path class="st0" d="M116,55.8c0.6,1.9,0.4,3.7-0.6,5.3c0,0.4,0.1,1-0.4,0.9c-1.3-1.8-0.3-4.2,0.2-6.1
			C115.3,55.6,115.9,55.4,116,55.8L116,55.8z"/>
		<path class="st0" d="M156.4,56.7c0.7,1.3,0.7,3.1,0.1,4.4l-0.4,0.4c-0.5-1.1-0.9-2.2-1.1-3.4c0.2-0.9,0.5-1.6,0.6-2.5
			C156.2,55.5,156.2,56.4,156.4,56.7L156.4,56.7z"/>
		<path class="st0" d="M90.6,57.3c-0.3,0.6-1.1,0.7-1.6,1.1c-1.1,0.9-2.8,1-4.2,0.8c1.2-1.7,3.1-2.7,5.4-2.2
			C90.3,57.1,90.5,57,90.6,57.3L90.6,57.3z"/>
		<path class="st0" d="M71.3,59c1.7,1.2,2.2,2.9,3.3,4.6c0.1,0.2,0.6,0.2,0.4,0.6c-0.4,0.3-0.8-0.3-1.3-0.2
			c-1.8-0.8-2.9-2.8-2.9-4.9C70.8,59,71.1,59,71.3,59L71.3,59z"/>
		<path class="st0" d="M154.5,60.4c0,0.5,0,0.9-0.4,1.1c-0.5,0.1-0.9-0.1-1.1-0.6c-0.1-0.3,0.1-0.5,0.2-0.8
			C153.6,59.8,154.3,60,154.5,60.4L154.5,60.4z"/>
		<path class="st0" d="M174.4,63c0-0.9,0.2-1.8,0.3-2.6c0.1-0.3,0.2-0.6,0.2-1c1.1-1.5,3.4-1,5.2-0.9c0.7,0.4,1.6,0.3,2.4,0.5
			c0.3-0.2,0.8-0.3,1.2-0.2c1.5-0.8,0.5-2.6,0.6-3.9l-0.6-1.4c-0.1-0.3-0.3-0.6-0.4-0.9c-0.3-0.3-0.5-0.9-0.8-1.3
			c-0.8-2.1-2.4-3.3-3.7-4.9c-2.4-3.1-6.2-4.9-9.9-6.1c-3.7-1.3-7.5,0.4-10.8,1.6c-1-0.3-1.6-1.1-1.8-2c-0.2-1.8,0.2-3.6,0.9-5
			c0.1-1.2,0.9-2.1,1.3-3.2c0.8-2.7,1.7-5.3,1.9-8.2c0.1-1.8-1.2-3-2.5-3.7c-0.9-0.2-1.9-0.2-2.6,0.5c-0.6,1.3-1.9,2.1-3.1,2.8
			c-0.1,0.8,0.9,0.3,1.2,0.6c1,0.2,2.2-0.1,3.1,0.5c0.1,1.9-1,3.5-2,4.9c-1.6,2.4-3.3,4.8-4.3,7.4L150,36l0.2,11.6
			c1.5,2.5,3.4,5.3,6.2,6.3c1.5,1.2,3.4,2.7,5.4,1.6c1.1-0.3,1.2,1.2,1.7,1.8c0.6,1.8-0.7,3-0.8,4.6l-1.2,2.6
			c-1.4,2.8-2.7,5.7-4.9,8c-0.7,0-1.1,0.8-1.8,0.8c-0.4,0.5-1.1,0.1-1.6,0.3c-1.5,0.6-3.5,0.2-4.5,1.6c0.1,0.1,0.2,0.2,0.4,0.2
			c2.9,0,6.1,0.2,9.1,0.1c0.4-0.1,0.7-0.5,0.8-0.9c-0.4-0.8,0.1-1.5,0.5-2.1c0.2-1.1,1-1.8,1.3-2.9c1-1.9,2.1-3.8,3.2-5.8l1.5-2.4
			c0.3-0.8,0.9-1.8,1.5-2.7c0.4-0.4,0.6-0.8,0.8-1.3c0-0.5-0.2-0.7-0.5-1c0.3-0.3,0.8-0.2,1.3-0.3c1.2,0.7,2.4,1.9,2.6,3.1l0.4,1.2
			l0.2,0.6l-0.1,1.6l0.2,1.5c0.2,2.3-0.2,4.6-0.4,6.9c-0.8,2.8-4,2.5-6.2,3.1c-0.6,0.4-1.6,0.2-1.6,1.1c2.7,0.6,5.9,0.2,8.9,0.2
			c0.5-0.2,0.6-0.6,0.8-1c0.1-0.6,0.7-1.1,0.5-1.8c-0.5-0.7,0-1.7-0.2-2.6c0.1-0.2,0.1-0.6,0-0.9c0.4-1.4,0.3-3,0.6-4.4L174.4,63
			L174.4,63z"/>
		<path class="st0" d="M197.6,61.1c-1.5,2.1-3.1,4.6-5.7,5.3c-0.2,0-0.4,0.1-0.5-0.1c1.6-1.7,2.5-4.4,4.9-5
			C196.7,61.1,197.2,60.9,197.6,61.1L197.6,61.1z"/>
		<path class="st0" d="M69,63.4c-0.2,0.2,0,0.6-0.5,0.7c-0.4,0.2-0.8,0-1-0.4c-0.2-0.5,0.2-0.9,0.6-1C68.5,62.8,68.9,63,69,63.4
			L69,63.4z"/>
		<path class="st0" d="M82.5,64.1c0.1,0.4-0.3,0.4-0.6,0.5c-2,0.7-4,0-5.4-1.4c0-0.2,0-0.4,0.2-0.4C78.7,63.3,80.9,62.9,82.5,64.1
			L82.5,64.1z"/>
		<path class="st0" d="M71.5,63.5c0.1,0.2,0.1,0.5,0.1,0.7c-0.3,0.4-0.7,0.5-1.2,0.4c-0.3-0.1-0.4-0.3-0.6-0.6
			c0-0.5,0.4-0.8,0.8-0.9C71,63.2,71.3,63.2,71.5,63.5L71.5,63.5z"/>
		<path class="st0" d="M115.7,63.7c0.1,0.4-0.3,0.7-0.6,0.9c-0.4,0.1-0.8-0.1-1-0.4c-0.1-0.3,0-0.8,0.3-0.9
			C114.9,63.2,115.6,63.3,115.7,63.7L115.7,63.7z"/>
		<path class="st0" d="M199.4,63.9c0.1,0.5-0.3,0.7-0.6,1c-0.3,0.1-0.6,0-0.9-0.1c0-0.2-0.3-0.4-0.2-0.8c0.2-0.4,0.6-0.6,1.1-0.6
			C198.9,63.6,199.1,63.7,199.4,63.9L199.4,63.9z"/>
		<path class="st0" d="M202.5,63.7c0.3,0.4,0,0.8-0.2,1.1c-0.2,0.3-0.6,0.4-0.8,0.3c-0.3-0.3-0.7-0.4-0.7-0.9c0-0.4,0.4-0.7,0.7-0.8
			C201.9,63.2,202.1,63.7,202.5,63.7L202.5,63.7z"/>
		<path class="st0" d="M67,65.1c0,0.3-0.2,0.5-0.3,0.8c-0.2,0.1-0.5,0.3-0.8,0.2c-0.3-0.1-0.6-0.4-0.7-0.8c0.1-0.4,0.4-0.8,0.8-0.9
			C66.4,64.5,66.8,64.7,67,65.1L67,65.1z"/>
		<path class="st0" d="M166.2,65.1c0.1,0.2,0,0.4,0,0.6c-0.3,0.4-0.7,0.7-1.1,0.5c-0.3-0.3-0.6-0.6-0.5-1
			C165,64.7,165.8,64.5,166.2,65.1L166.2,65.1z"/>
		<path class="st0" d="M74.6,65.8c-0.1,0.3-0.2,0.7-0.7,0.7c-0.4,0-0.6-0.3-0.8-0.5c0-0.4,0-0.9,0.4-1.1
			C74,64.7,74.6,65.2,74.6,65.8L74.6,65.8z"/>
		<path class="st0" d="M70,65.9c0.1,0.5-0.2,0.8-0.5,1c-0.6,0.2-1-0.2-1.3-0.7c0-0.4,0.4-0.9,0.8-1.1C69.6,65.2,69.8,65.7,70,65.9
			L70,65.9z"/>
		<path class="st0" d="M169.3,65.8c0.1,0.5,0,0.9-0.5,1.1c-0.6,0.2-1-0.3-1.3-0.7c0.2-0.4,0.3-0.9,0.8-1
			C168.8,65.3,169.1,65.5,169.3,65.8L169.3,65.8z"/>
		<path class="st0" d="M72.3,66c0.1,0.3-0.1,0.5-0.2,0.7c-0.2,0-0.4,0.3-0.7,0.2c-0.2-0.2-0.6-0.3-0.6-0.7c0-0.5,0.3-0.7,0.6-0.9
			C71.8,65.3,72.1,65.6,72.3,66L72.3,66z"/>
		<path class="st0" d="M196.8,66.4c-0.1,0.4-0.4,0.6-0.8,0.8c-0.4,0.1-0.6-0.2-0.9-0.4c-0.2-0.2-0.1-0.6,0-0.9
			C195.5,65.1,196.8,65.5,196.8,66.4L196.8,66.4z"/>
		<path class="st0" d="M200.4,66.6c-0.1,0.5-0.7,0.8-1.1,0.8c-0.4-0.2-0.9-0.5-0.6-1.1c0.2-0.2,0.3-0.4,0.6-0.4
			C199.8,65.7,200.2,66.1,200.4,66.6L200.4,66.6z"/>
		<path class="st0" d="M178,66.9c0.2,0.6-0.3,0.8-0.7,1.1c-0.3,0-0.6-0.2-0.9-0.4c-0.1-0.5,0.1-1,0.7-1.2
			C177.5,66.4,177.7,66.6,178,66.9L178,66.9z"/>
		<path class="st0" d="M165,67.5c0.2,0.1,0.1,0.4,0.1,0.6c-0.3,0.2-0.7,0.7-1.1,0.4c-0.3-0.2-0.6-0.5-0.5-0.9
			C163.8,67,164.8,67,165,67.5L165,67.5z"/>
		<path class="st0" d="M167.7,67.8c0,0.4,0,0.6-0.4,0.8c-0.3,0.3-0.7,0-1-0.1c-0.1-0.2-0.2-0.5,0-0.7c0.1-0.2,0.4-0.3,0.6-0.4
			C167.1,67.4,167.5,67.4,167.7,67.8L167.7,67.8z"/>
		<path class="st0" d="M87.7,67.9c0.3,0.3,0,0.6-0.1,0.9c-0.2,0.3-0.8,0.5-1.2,0.2c-0.5-0.2-0.4-0.8-0.3-1.2
			c0.3-0.1,0.3-0.4,0.7-0.4C87.2,67.4,87.4,67.6,87.7,67.9L87.7,67.9z"/>
		<path class="st0" d="M183,68c0.1,0.5-0.4,0.7-0.7,0.8c-0.6,0.2-0.8-0.2-1.1-0.6c0-0.3,0.3-0.5,0.4-0.7
			C182.3,67.2,182.7,67.7,183,68L183,68z"/>
		<path class="st0" d="M180.5,68c0.2,0.5-0.3,0.7-0.5,0.9c-0.3,0.1-0.8,0.1-1-0.2c-0.2-0.1-0.2-0.4-0.2-0.7c0.3-0.2,0.4-0.5,0.8-0.6
			C179.9,67.5,180.3,67.7,180.5,68L180.5,68z"/>
		<path class="st0" d="M201.7,68.6c0.1,0.7-0.8,0.3-1.1,0.5c-2,1.2-4.5,0.3-6.4-0.4c0.1-0.6,0.8-0.4,1.2-0.6c2-1.3,4.1,0.3,6.1,0.4
			L201.7,68.6L201.7,68.6z"/>
		<path class="st0" d="M72.8,68l-0.2,0.3c-1.7,1-4,1.8-6.1,1.1l-0.2-0.3c1.7-1.3,4.1-1.6,6.3-1.3L72.8,68L72.8,68z"/>
		<path class="st0" d="M187.8,68.4c0,0.4-0.2,0.7-0.5,0.9c-0.5,0.1-1.1,0-1.2-0.5c-0.1-0.4,0.2-0.8,0.6-0.9
			C187.1,67.9,187.6,67.9,187.8,68.4L187.8,68.4z"/>
		<path class="st0" d="M81.2,68.6c-0.2,0.4-0.1,0.8-0.6,0.9c-0.5,0.2-1-0.2-1.2-0.6c-0.1-0.5,0.2-0.7,0.5-0.9
			C80.5,67.7,80.9,68.1,81.2,68.6L81.2,68.6z"/>
		<path class="st0" d="M77.9,68.8c0.1,0.3-0.1,0.5-0.2,0.8c-0.2,0.3-0.7,0.2-0.9,0.1c-0.3-0.3-0.7-0.6-0.5-1.1
			c0.3-0.2,0.4-0.4,0.8-0.5C77.3,68.1,77.8,68.3,77.9,68.8L77.9,68.8z"/>
		<path class="st0" d="M191.1,69.9c0,0.4-0.4,0.8-0.8,0.9c-0.4,0-0.7-0.2-0.9-0.5c-0.1-0.3-0.1-0.7,0.2-0.9c0.1-0.1,0.4-0.1,0.6-0.2
			C190.7,69.2,191,69.5,191.1,69.9L191.1,69.9z"/>
		<path class="st0" d="M74.4,69.4c0.1,0.4-0.2,0.5-0.2,0.8c-0.1,0.8-0.7,1.3-1,2c-0.9,1.1-2.2,1.1-3.4,1.4l-0.2-0.4
			c1.4-1.8,2.8-3.1,4.8-4L74.4,69.4L74.4,69.4z"/>
		<path class="st0" d="M188.8,70.4c0.1,0.6-0.4,0.7-0.7,0.9c-0.4,0-0.8-0.2-0.9-0.6c-0.1-0.5,0.3-0.7,0.6-0.9
			C188.2,69.7,188.6,70,188.8,70.4L188.8,70.4z"/>
		<path class="st0" d="M79.8,70.4c0,0.1,0,0.2,0.1,0.2c0,0.5-0.4,0.7-0.7,0.9c-0.4,0-0.8-0.1-1-0.5c-0.2-0.4,0-0.9,0.5-1.1
			C79.1,69.9,79.6,70,79.8,70.4L79.8,70.4z"/>
		<path class="st0" d="M197.4,71.8c0.5,0,0.6-0.6,1.1-0.7c0.5-0.1,0.9,0.2,1.1,0.5c0.2,0.6-0.2,0.9-0.6,1.1c-0.3,0.2-1-0.3-1,0.3
			c0.3,0.2,0.6,0.6,0.7,0.9c-0.1,0.2-0.4,0.1-0.6,0c-1.4-0.6-2.8-1.5-3.4-2.9c-0.2-0.4-1.1-0.8-0.6-1.1
			C195.6,69.9,196.7,71,197.4,71.8L197.4,71.8z"/>
		<path class="st0" d="M202,70.4c0.2,0.2,0.1,0.7,0,0.9c-0.2,0.5-0.9,0.3-1.4,0.2c-0.2-0.2-0.5-0.5-0.4-0.9c0.2-0.3,0.4-0.5,0.7-0.6
			C201.3,69.9,201.6,70.1,202,70.4L202,70.4z"/>
		<path class="st0" d="M184.9,72.9c0.4,0.5,0.8,1.3,1,1.9c-0.1,0.1-0.3,0.1-0.4,0.1c-1.6-0.9-3.7-1.9-4.3-3.8
			c-0.1-0.2-0.5-0.4-0.5-0.8c1.2-0.2,2.4,0.7,3.3,1.3C184.3,72.2,184.7,72.4,184.9,72.9L184.9,72.9z"/>
		<path class="st0" d="M77.2,71.1c0.2,0.4-0.2,0.8-0.4,0.9c-0.5,0.1-0.8-0.1-1.1-0.4c-0.3-0.5,0.3-0.9,0.7-1.1
			C76.7,70.5,76.9,70.9,77.2,71.1L77.2,71.1z"/>
		<path class="st0" d="M190.8,72.2c0,0.3-0.3,0.5-0.5,0.7c-0.4,0-0.8,0.2-1.1-0.1c-0.1-0.2-0.3-0.6,0-0.9
			C189.7,71.2,190.4,71.7,190.8,72.2L190.8,72.2z"/>
		<path class="st0" d="M202.5,72.9c0.1,0.6-0.3,0.9-0.7,1.2c-0.5,0.1-0.8-0.2-1.1-0.4c-0.2-0.3,0-0.6,0-0.9c0.3-0.3,0.8-0.5,1.2-0.3
			C202.1,72.6,202.3,72.6,202.5,72.9L202.5,72.9z"/>
		<path class="st0" d="M169.9,79.4c0,0.6-1,0.4-1.5,0.9c-1.5,0.8-3.2,0.8-4.9,0.7v-0.3C165.2,79.3,167.6,78.8,169.9,79.4L169.9,79.4
			z"/>
		<path class="st0" d="M101.1,81.5c0,0.4-0.3,0.7-0.7,0.8c-0.3,0-0.7-0.2-0.8-0.5c-0.2-0.6,0.3-0.8,0.6-1
			C100.7,80.8,101,81.1,101.1,81.5L101.1,81.5z"/>
		<path class="st0" d="M169.1,82c-0.1,0.4-0.2,0.9-0.7,1.1c-0.4,0.1-0.7-0.1-1-0.3c-0.2-0.2-0.1-0.5-0.1-0.8
			C167.5,81.1,168.7,81.1,169.1,82L169.1,82z"/>
		<path class="st0" d="M178.5,82.2c-1.2,0.8-2.5,1.7-4.1,1.7l-2.5,0l-0.2-0.2c1.6-1.9,4.4-1.9,6.8-1.7V82.2L178.5,82.2z"/>
		<path class="st0" d="M88.2,83.3c0,0.4-0.2,0.8-0.6,0.9c-0.5,0.1-0.8-0.1-1-0.4c-0.2-0.4,0-0.9,0.4-1.1
			C87.5,82.4,88,82.9,88.2,83.3L88.2,83.3z"/>
		<path class="st0" d="M90.6,83.8c0.1,0.2-0.1,0.4-0.2,0.6c-0.3,0.1-0.7,0.2-0.9,0c-0.3-0.2-0.4-0.5-0.3-0.8
			c0.1-0.3,0.4-0.2,0.6-0.4C90.1,83.3,90.4,83.5,90.6,83.8L90.6,83.8z"/>
		<path class="st0" d="M72.5,88.6c-0.5,0.6-1.2-0.1-1.7-0.4c-1.6-0.9-1.6-2.8-3.3-3.9c0.2-0.6,0.6,0,0.9,0c0.3,0.2,0.7,0.4,1,0.5
			C71.1,85.6,71.5,87.2,72.5,88.6L72.5,88.6z"/>
		<path class="st0" d="M209.9,70.2c-0.8-1.4-2-1.9-3.5-1.9c-1.2,0.1-2.1,0.9-2.6,1.9c-0.3,1,0.1,2,0.9,2.6c0.3,0.1,0.8,0.1,0.9-0.2
			c0.2-0.6-0.4-0.6-0.5-1.1c-0.2-0.7,0-1.2,0.5-1.7c0.5-0.5,1.3-0.2,1.8-0.2c0.6,0.4,1.1,0.7,1.4,1.4c0.3,0.8,0.3,1.7,0,2.5
			c-0.5,1.2-1.7,2.1-2.9,2.4c-3.9,0.6-46.8,0.4-46.8,0.4c-5,0.5-10.8-0.9-15.1,1.7c-2,0.9-3,3.1-3.5,5.1c-1.3,1.1-2.6,2.5-3.7,3.7
			l-0.1-0.1c0.2-1.1,0.8-2.1,1-3.3c0.7-0.9,0.7-2.2,1.2-3.3c1.8-2.9,3.5-5.8,6.3-7.9c1.2-1.6,3.3-1.3,5-1.3c1.9,0.9,4.2,1.2,6.5,0.9
			c0.1-0.1,0.1-0.2,0.1-0.3c-0.7-0.6-1.7-0.9-2.5-1.5c-1.9-0.9-3.7,0.3-5.7,0.1c-0.1-0.1-0.2-0.1-0.1-0.3c1.8-1.3,3.8-2.3,5.8-3.1
			c1.6-0.9,3.4-1.4,5.1-2c0.7,0,1.4-0.6,2-0.2l2.5-0.7c0.1,0,0.2,0.2,0.4,0.1c2.1-0.7,4.8,0,7.2-0.1l0.3,0.3l2.3,0.6
			c0.8,0.1,1.2,1.1,2.1,1.1c0.5-0.7-0.5-0.9-0.8-1.4c1-0.2,2.2,0,3.2,0.5l-0.5,0.5c-0.3,0.5,0.1,0.9,0.6,1.1
			c0.3,0.1,0.6-0.1,0.8-0.2c0.6-0.4,0-0.9,0.1-1.2c3.5,0.6,6.8,1.5,10,2.8c0.9,0.3,1.7,0.9,2.7,0.9c-1-0.9-2.4-1.4-3.6-1.9
			c-0.8-0.5-1.9-0.5-2.5-1.2c0.1-0.2,0.5-0.1,0.6-0.3c1.6-0.2,3-1.4,4.1-2.7c0.1-0.3,0.6-0.2,0.6-0.6c-0.4-0.5-1.1,0.1-1.7,0.1
			c-2,0.4-2.8,2.7-4.8,3.1c-2.4-0.6-4.9-1.1-7.3-1.8c-1.2-0.2-2.4-0.3-3.5-0.8l-2.6-0.2H167c0-0.1-0.2-0.1-0.1-0.3
			c1.7-0.4,3.2-1.4,4.9-1.9l12.6-5.8c1.3-1.2,2.5-2.5,3.6-3.9c0-0.4-0.2-0.8-0.5-0.9c-0.3-0.1-0.7-0.1-0.9,0.2c-0.6,0.4,0,1,0,1.5
			c-0.6,0.8-1.5,1.4-2.2,1.9c-0.2,0-13,5.8-13,5.8c-1.9,0.8-3.8,1.7-5.7,2.1l-2.7,0.4c-0.2,0.6-0.7,0.9-1.2,1.1
			c-0.8,0.1-1.4,0.6-2.2,0.6c-6.1,2.4-12.5,4.9-17.3,9.7c0.3-0.6,0.4-1.3,0.5-2c-0.1-0.7,0-1.5-0.5-2.1c-0.1-0.3-0.5-1-0.3-1.3
			l-0.7,0.4c-0.4,1-0.8,2.9-0.4,4c0.1,0.9,0.8,1.9,0.2,2.6c-2.3,2.8-3.5,6.1-5,9.2c-0.6-0.1-0.8-0.6-1.1-1.1c1.6-2,2.9-4.3,3.3-6.9
			c0.3-0.2,0.1-0.9,0.4-1.1c-0.1-0.8,0.4-1.5,0-2.1c0.3-1-1.4-2-0.3-2.7l-0.9,0.4c-2,2.7,1.1,6.6-1.3,9.2v0.2
			c-0.7,0.9-1,1.7-1.9,2.3c-1.1-0.5-1.6-1.8-2.2-2.7c-1-1-1-3-0.4-4.4c0.4-1.4-0.3-2.6-0.4-3.8l-0.5-0.3c-1.1,1.5-1.6,3.8-0.7,5.6
			c0.5,0.9,0.5,2,1.2,2.8c0.4,1.4,1.3,2.3,2,3.5c0.2,0.5-0.3,0.6-0.5,0.8c-0.5-0.3-0.4-1.1-0.9-1.4c-1.6-3.3-3.6-6-6-8.7
			c-0.1-0.4-0.5-0.8-0.3-1.3c0.9-0.9,1.1-2.5,0.6-3.6c-0.1-0.2-0.4-0.5-0.3-0.8l-0.7-0.6c0.1,1.7-1,3.1-0.5,4.9v0.1
			c-4.9-3.7-10.2-6.9-15.7-9.5l-0.4,1.2c1.4,0.3,5,2.6,5,2.6c1.6,0.6,3.2,1.6,4.7,2.5c6.4,3.6,10.6,9.4,13.5,16
			c0,0.5,0.5,1.1,0.2,1.6c-1-1.5-2.4-2.4-3.6-3.6c-0.3-2.2-1.6-4.4-3.6-5.3c-0.7-1-2.2-1.1-3.4-1.5l-17.2-0.1
			c-13.9-0.2-26.7,0.4-40.5,0.2c-1.9-0.2-4.3-0.9-4.9-2.9c-0.4-0.7-0.4-1.9,0-2.6c0.5-0.9,1.5-1.2,2.4-1.3c0.8,0.1,1.3,0.8,1.6,1.3
			c0,0.6-0.5,1.2-0.8,1.7c0,0.2,0.2,0.6,0.6,0.4c0.6-0.2,1.1-0.9,1.2-1.5c0-0.3,0.2-0.8-0.1-1c-0.3-1-1.3-1.7-2.2-1.9
			c-1.2-0.1-2.4,0.2-3.2,1.1c-1.1,1-1.1,2.7-0.8,4c0.8,2.1,3,3.5,5.1,3.8l45.8,0.2c4.5,0.2,9.5-0.5,14,0.4c1.6,0.5,3.4,1.8,3.8,3.6
			c0,0.1-0.2,0-0.3,0c-3.7-2.4-8.6-3.3-13.4-2.8c-1.9-0.1-3.6,0.6-5.3,1.1c-0.9,0.2-1.7-0.2-2.3-0.8c-1.7-1.5-4.7-1.4-6.8-0.9
			c0,0.1,0,0.3,0,0.3c2.3-0.2,3.7,1.8,5.7,2c0.5,0.1,0.8-0.4,1.3,0c-2.2,1-4.2,2.3-6.5,2.9c-0.7-0.1-1.1-0.8-1.6-1.2
			c-0.9-1-2.5-0.6-3.8-0.7c-0.4,0.1-0.8-0.2-1.1,0c0.4,0.8,1.2,1.2,2,1.6c1.2,0.5,2.5,0,3.6,0.7c-0.3,0.3-0.7,0.4-1,0.7
			c-2.2,0.9-4.1,2.8-6.5,2.7c-2.6,0.3-5.2-0.5-7-2.3c-0.8-1.9-2.7-2.8-4.8-2.8c-0.1,0.1-0.3,0.1-0.3,0.3c1,0.6,1.8,1.8,2.9,2.6
			c0.7,0.8,1.9,0,2.5,0.9c0.9,0.6,2,1.1,3.1,1.3c0.8,0.3,1.6,0.5,2.5,0.7L89,88.6c-4.3,1.4-9.2,1.6-14,1.4c-1.4,0-2.8-0.5-4.2-0.4
			c0.2,0.3,0.7,0.5,1.1,0.7c-0.4,0.2-0.8,0.3-1.3,0.4c-0.6,0.1-1.2,0.2-1.8,0.5c-0.8,0-1.4,0.2-2,0.5c-0.8,0.9-1.7,1.8-2.7,2.2
			c0,0.2,0,0.5,0.2,0.5c0.9-0.4,2-0.1,2.9-0.5c1.6-0.1,2.4-1.9,3.7-2.6c1.3-1,3.2-0.8,4.8-0.6c0.9,0.2-0.1,0.6,0.2,1.2
			c0.4,0.3,0.7,0.7,1.2,0.6c0.1-0.1,0.2-0.2,0.3-0.2c0.3-0.4,0.2-0.8,0-1.2c0.7-0.4,1.6,0,2.3-0.2c1.8,0,3.6-0.4,5.3-0.5
			c0.3,0,0.6-0.3,0.9,0c-0.1,0.4-0.6,0.4-0.4,0.9c0.1,0.4,0.6,0.6,0.9,0.7c0.5-0.2,0.9-0.5,0.7-1.1c-0.1-0.3-0.5-0.4-0.7-0.5
			c1-0.5,2.1-0.6,3.1-1.1c0.7-0.1,1.4-0.4,2-0.7c0.6,0,1.1-0.6,1.7-0.4c-0.2,0.8-0.6,1.6-1,2.3c-0.8,2.5-1.3,5.8,0,8.3
			c0.1,0,0.2,0,0.3-0.1c-1-2.5-0.4-5.4,0.4-7.8c0.7-4,4.8-5.2,7.8-6.7l0.1,0.2c-0.8,2.1-2,4.1-1.8,6.6c0.1,0.4-0.2,0.9,0,1.1
			c0.8-0.4,1.3-1.4,1.7-2.2c0.3-2.1-0.9-4.8,1.3-6.4c3.9-1.5,7.5-3.5,12-3.6c0.1,0.1,0.5-0.1,0.5,0.2c-0.9,1-2.3,2-2.7,3.3
			c-1.5,2.1-1.5,5.6-0.8,8.2c0.4,1.5-0.8,2.3-1.5,3.4c-0.3,0.4-0.4,1.1-0.6,1.6l0.9,0.1c0.8-0.9,1.6-1.9,1.6-3.1
			c0.1,0.5,0.5,0.9,0.9,1c0.3-0.5-0.3-0.9-0.3-1.4c0.8-0.4,1.1,0.5,1.7,0.7c1,0.2,1.8,0.7,2.9,0.7L117,94c-1-1.6-3.1-1.9-4.9-2
			c-0.9-1.6-0.9-3.5-0.8-5.4c0.2-1,0.4-2,0.9-2.9c0.2-0.7,0.9-1.3,1.3-1.8c0.8-0.8,1.9-1.4,3-1.6h0.1c0,0.1,0,0.1,0,0.1
			c-1.3,1-1.4,2.4-2.2,3.6c-0.8,1.2-1.2,2.8-0.4,4.1c0.3,0.6,0.1,1.6,0.8,2c0.6-0.9,0.7-1.9,1-2.9c-0.1-1.6-1.1-3-0.2-4.6
			c0.5-1.2,1.5-1.7,2.5-2.1c2.6-0.2,4.9,1.1,7.1,2.1c0.5,0.3,1.3,0.6,1.4,1.3c0,1.3-0.8,2.6-1.7,3.2c-1.3,0.8-3.1,0.9-4.3,0
			c-0.7-0.7-1-1.9-0.8-2.9c0.5-0.6,1.2-1,2.1-0.8c0.5,0.2,0.9,0.7,1.5,0.4c0.2-0.1,0.3-0.5,0.2-0.8c-0.5-0.3-0.7-1-1.4-1.1
			c-0.9-0.1-2-0.1-2.6,0.5c-1,0.9-1.4,2.1-1.1,3.3c0.3,1.5,1.5,2.6,2.9,3c2.2,0.5,4.4-0.1,5.8-2c0.6-0.6,0.7-1.3,1-2
			c2.3,1.4,4,3.8,4.9,6.3c0,0.8,0.2,1.7,0,2.4l1.6,0.1c-0.1-0.4,0-0.8,0.1-1.1c0.6-3.1,2.5-5.7,4.9-7.8c0.8-0.5,0.6,0.6,0.8,0.9
			c0.7,1.8,2.4,3.1,4.1,3.6c2,0.3,3.9-0.1,5.1-1.7c0.6-1.1,1.4-2.8,0.3-4c-0.7-0.8-1.6-1.2-2.6-1.2c-1.2,0-2,0.9-2.6,1.8
			c0,0.4,0,0.8,0.3,1c0.2,0,0.6,0,0.7-0.2c0.1-0.7,0.7-1,1.3-1.4c0.5-0.3,1.1,0,1.5,0.3c0.5,0.4,0.6,1.1,0.7,1.9
			c-0.1,0.9-0.7,1.9-1.6,2.2c-1.4,0.7-3.3,0.4-4.5-0.4c-0.6-0.6-0.9-1.3-1.3-2.1c-0.1-0.8-0.4-1.4,0-2.2c2.1-1.2,4.2-2.1,6.7-2.4
			c1,0.2,1.8,0.9,2.5,1.6c2.2,2.2-0.5,5.4,1,7.9c0.6-0.1,0.6-0.9,0.8-1.3c0.7-1.7-0.2-3.6-0.6-5.2c-0.6-1-0.9-1.9-1.8-2.8
			c0.2-0.1,0.3-0.1,0.6-0.1c1,0.7,2.1,1.4,2.9,2.5c1.4,2.2,2.1,4.9,1.8,7.8c-0.4,1.4-1.9,2.1-3.1,2.6c-0.5,0.4-1,0.9-1.3,1.5
			c0.6,0.3,1.4,0,1.9-0.2c0.9-0.3,1.4-1.5,2-2c0.1,0,0,0.2,0.1,0.3c0,0.5-0.2,1.2,0.2,1.4c0.2-0.7,0.3-1.6,0.4-2.4
			c0.6,0.7,0.7,1.5,0.9,2.4c0.4,0.9,1.1,2,2.3,2.1c0.3-0.4,0-0.9-0.1-1.2c-0.1-1.2-1.1-1.8-1.8-2.7c-1.7-2.3-0.9-5.8-2.2-8.4
			c-0.5-1.4-1.5-2.4-2.5-3.5l0.2-0.2c2.3,0,4.2,0.7,6.4,1.1c2.6,1.3,6.4,1,7.6,4.4c0.5,1.9,1.4,3.7,2.7,5.1l0.1-0.1
			c0.3-0.5,0.3-1.3,0-1.8c-0.3-2.4-2.4-2.9-3.4-4.9l0.1-0.2c1.1,0.3,2.3,0.6,3.4,1.1c3.8,1,6.4,4.7,6.9,8.6c0,3-0.6,5.6-1.7,8.1
			c-0.1,0.4-0.8,0.8-0.4,1.1c0.5-0.4,0.6-1,0.9-1.4c1.6-2.6,2.4-6.2,1.6-9.5c0-0.6-0.8-1.1-0.4-1.7c0.2,0.3,0.5,0.3,0.8,0.4
			c0.3-0.2,0.7-0.2,0.9-0.5c0-0.3,0.2-0.6,0-0.9c-0.3-0.4-0.9-0.4-1.4-0.3c-0.2,0.3-0.5,0.7-0.6,1c-0.5-0.8-0.9-1.8-1.7-2.5l0.1-0.1
			c2.1,0.7,4.1,1.8,6.2,2.3c0.5,0.3,1,0.5,1.6,0.5c1.8,0.7,3.9,1,5.8,1.5c1.4-0.1,2.6,0.5,4,0.2v-0.1l0,0c-0.5-0.7-1.6,0-2.3-0.5
			c-3.3-0.3-6.4-1.2-9.3-2.3c0-0.1,0.2-0.1,0.4-0.1c0.5-0.2,0.8-0.7,0.8-1.2c-0.2-0.3-0.6-0.5-1.1-0.5c-0.3,0.1-0.7,0.5-0.7,0.8
			c0,0.4,0.4,0.8,0.7,0.9c-0.1,0.1-0.3,0-0.4,0c-1.5-0.7-2.9-1.3-4.3-1.9c-0.5-0.1-0.9-0.5-1.5-0.6c-1.1-0.5-2.2-1-3.3-1.5
			c-3-1.6-6.4-2.4-9.6-3.6c-0.7-0.2-1.4-0.4-2-0.6c-1.2-0.3-2.4-0.6-3.5-1c-4-1-9.4-1.1-12.9,1.1c-0.6-0.2-0.9,0.7-1.2,0.1
			c1-2.6,3.9-3.5,6.5-3.6c18.9-0.2,36.6-0.3,55.2-0.6c2.2,0,4.3-0.8,5.4-2.7C210.4,73.4,210.5,71.5,209.9,70.2L209.9,70.2z
			 M135,87.7c-0.2,0.6-0.6,1-0.5,1.7l-0.2,0.1c0.1-0.7-0.6-1.1-0.4-1.9c-0.4-0.6-0.4-1.3-0.7-1.9c-0.4-0.8,0.4-1.1,0.7-1.6
			c0.7,0.3,0.9,0.9,1.4,1.5C135.5,86.3,134.9,86.9,135,87.7L135,87.7z"/>
		<path class="st0" d="M186.1,84.7c0,0.1,0.3,0.2,0.2,0.4c-1.6,1.5-4,1.9-6.3,2c-0.2,0-0.4,0.2-0.6,0.1c-0.1-0.1-0.2-0.2-0.1-0.3
			C181,85.1,183.5,84.1,186.1,84.7L186.1,84.7z"/>
		<path class="st0" d="M178.5,85.5c0.2,0.7-0.2,1-0.8,1.3c-0.5,0-0.8-0.4-1-0.8c-0.1-0.4,0.2-0.6,0.3-0.8
			C177.4,84.8,178.3,84.8,178.5,85.5L178.5,85.5z"/>
		<path class="st0" d="M88.9,85.6c0.1,0.3,0,0.8-0.2,1c-0.2,0.2-0.6,0.3-0.8,0.2c-0.3,0-0.5-0.4-0.6-0.7c0-0.4,0.2-0.7,0.6-0.9
			C88.2,85.2,88.6,85.1,88.9,85.6L88.9,85.6z"/>
		<path class="st0" d="M80.5,88.6V89c-1.1,0.2-2.2,0-3.1-0.7c-0.7-1-1.4-1.9-2.5-2.4c0-0.1-0.3-0.3,0-0.4
			C77.3,85.5,78.7,87.4,80.5,88.6L80.5,88.6z"/>
		<path class="st0" d="M193.2,85.5c-1.1,1.6-2,3.6-4,4.3c-0.3,0-0.6,0.5-0.9,0.1c0.8-1.8,2.4-3.7,4.2-4.5
			C192.8,85.5,193.1,85.4,193.2,85.5L193.2,85.5z"/>
		<path class="st0" d="M91.7,86.1c0,0.5-0.3,0.6-0.7,0.9c-0.4,0-0.6-0.2-0.8-0.5c-0.2-0.5,0.2-0.7,0.5-0.9
			C91.1,85.5,91.5,85.7,91.7,86.1L91.7,86.1z"/>
		<path class="st0" d="M199.2,86.4c-0.4,0.6-0.2,1.5-0.7,2.2c-0.9,1.1-1.7,2.3-3.3,2.6c-0.2-0.5,0.3-0.9,0.6-1.4
			c0.7-1.4,1.6-3,3.1-3.7L199.2,86.4L199.2,86.4z"/>
		<path class="st0" d="M65.9,86.8c0.1,0.3,0.3,0.7,0,1c-0.3,0.2-0.7,0.3-1.1,0.2c-0.4-0.2-0.6-0.8-0.4-1.1
			C64.7,86.5,65.6,86.2,65.9,86.8L65.9,86.8z"/>
		<path class="st0" d="M63.2,87.4c0,0.2,0.2,0.4,0.1,0.7c-0.1,0.2-0.4,0.5-0.7,0.6c-0.5,0.1-0.8-0.2-1.1-0.6c0-0.4,0.1-0.8,0.5-1
			C62.5,86.8,63,87,63.2,87.4L63.2,87.4z"/>
		<path class="st0" d="M68.8,87.6c0.1,0.4,0.2,1-0.4,1.1c-0.7,0.3-1-0.2-1.4-0.6c0-0.4,0.2-0.8,0.6-0.9C68,87.2,68.4,87.3,68.8,87.6
			L68.8,87.6z"/>
		<path class="st0" d="M76.5,88.3c0,0.3,0,0.8-0.3,0.9c-0.2,0.2-0.7,0.1-0.9,0.1c-0.1-0.3-0.6-0.5-0.3-0.9c0.2-0.2,0.4-0.4,0.7-0.5
			C75.9,88,76.3,87.9,76.5,88.3L76.5,88.3z"/>
		<path class="st0" d="M203.7,88.6c-0.1,0.3-0.3,0.8-0.7,0.8c-0.4,0-0.8-0.1-1.1-0.5c-0.2-0.5,0.2-0.8,0.6-0.9
			C203,87.9,203.6,88.1,203.7,88.6L203.7,88.6z"/>
		<path class="st0" d="M195.1,88.8c0,0.4-0.4,0.7-0.6,0.8c-0.7,0.3-1.2-0.2-1.5-0.7c0.1-0.4,0.4-0.7,0.8-0.9
			C194.5,88,194.8,88.4,195.1,88.8L195.1,88.8z"/>
		<path class="st0" d="M200.9,88.7c0,0.3-0.2,0.7-0.4,0.8c-0.4,0.1-0.8,0.1-1.1-0.2c-0.4-0.4-0.1-0.7,0.2-1
			C200,88.1,200.8,88.2,200.9,88.7L200.9,88.7z"/>
		<path class="st0" d="M64.7,89.5c0.1,0.5-0.1,1-0.6,1.2c-0.4,0-0.9-0.2-1-0.7c0-0.4,0.1-0.9,0.5-1C64,88.9,64.4,89.2,64.7,89.5
			L64.7,89.5z"/>
		<path class="st0" d="M192.7,90.1c0.1,0.5-0.1,1-0.7,1.2c-0.4,0.1-0.6-0.1-0.9-0.3c-0.2-0.2-0.4-0.8,0-1
			C191.5,89.3,192.4,89.5,192.7,90.1L192.7,90.1z"/>
		<path class="st0" d="M90,90.6c0.2,0.5-0.4,0.6-0.5,0.9c-0.2,0.1-0.6,0.1-0.7,0c-0.2-0.3-0.5-0.6-0.4-1c0.2-0.2,0.3-0.4,0.6-0.5
			C89.5,89.8,89.7,90.3,90,90.6L90,90.6z"/>
		<path class="st0" d="M202.9,90.9c0.1,0.3-0.2,0.5-0.2,0.7c-0.3,0.2-0.8,0.3-1.1,0.2c-0.4-0.2-0.4-0.6-0.4-1
			c0.3-0.2,0.3-0.4,0.7-0.5C202.2,90.3,202.7,90.4,202.9,90.9L202.9,90.9z"/>
		<path class="st0" d="M199.9,91.1c0.2,0.6-0.3,0.9-0.7,1c-0.2,0-0.5-0.1-0.5,0.2c1.2,0.6,2,1.6,2.9,2.5v0.4c-1.7,0-3.4-0.5-4.7-1.8
			c-0.3-0.2-0.9-0.2-1.3-0.6c0.6-0.6,1.7-0.4,2.6-0.4c0.6-0.7-0.7-1.1,0.1-1.7c0.3,0,0.5-0.3,0.8-0.2
			C199.6,90.5,199.8,90.8,199.9,91.1L199.9,91.1z"/>
		<path class="st0" d="M180.7,91.1c0.1,0.2-0.2,0.5-0.2,0.8c-0.3,0.3-0.7,0.3-1,0.2c-0.2-0.3-0.6-0.6-0.5-1.1
			C179.3,90.3,180.5,90.4,180.7,91.1L180.7,91.1z"/>
		<path class="st0" d="M75.3,92.8c-0.1,0.4-0.3,0.7-0.8,0.8c-0.4,0-0.7-0.2-0.8-0.6c0-0.3,0.2-0.5,0.2-0.8
			C74.4,91.8,75.4,92.1,75.3,92.8L75.3,92.8z"/>
		<path class="st0" d="M79.1,92.2c0,0.7-0.7,1-0.9,1.7c-0.7,1.6-2,3-3.8,3.1c-0.2-0.4,0.6-0.9,0.8-1.4c0.8-1.6,2.3-2.5,3.6-3.5H79.1
			L79.1,92.2z"/>
		<path class="st0" d="M179.5,92.8c0,0.5-0.4,0.9-0.8,1.1c-0.4,0.1-0.8-0.2-1-0.4c-0.4-0.4-0.1-0.8,0-1.1
			C178.4,91.8,179.2,92.3,179.5,92.8L179.5,92.8z"/>
		<path class="st0" d="M182.5,93.1c0,0.5-0.4,0.9-0.8,1c-0.1-0.1-0.3,0-0.5-0.1c-0.3-0.2-0.6-0.5-0.6-0.9c0.2-0.2,0.3-0.6,0.7-0.7
			C181.6,92.5,182.3,92.6,182.5,93.1L182.5,93.1z"/>
		<path class="st0" d="M86.4,93.1c0,0.5-0.3,0.8-0.7,1c-0.4,0-0.7-0.2-0.9-0.6c-0.1-0.4,0.3-0.7,0.6-0.9
			C86,92.4,86.1,92.8,86.4,93.1L86.4,93.1z"/>
		<path class="st0" d="M89.7,93.3c-0.1,0.4-0.4,0.7-0.9,0.8c-0.3-0.1-0.7-0.2-0.8-0.6c0-0.5,0.3-0.7,0.7-0.9
			C89.1,92.6,89.6,92.8,89.7,93.3L89.7,93.3z"/>
		<path class="st0" d="M192.6,96.6c0.2,0.2,0.7,0.4,0.6,0.8c-0.8,0.3-1.4-0.5-2.1-0.7c-1.1-1.1-2-2.4-2.5-3.8
			c0.4-0.4,0.9,0.1,1.3,0.2C191,94,192,95.2,192.6,96.6L192.6,96.6z"/>
		<path class="st0" d="M194.3,93.3c0.1,0.3,0.1,0.7-0.1,1c-0.3,0.5-0.9,0.4-1.3,0.3c-0.2-0.3-0.7-0.7-0.4-1.1
			c0.1-0.4,0.6-0.5,0.9-0.6C193.8,92.9,194,93.1,194.3,93.3L194.3,93.3z"/>
		<path class="st0" d="M94,94.5c0,0.4,0.1,0.9-0.3,1.2c-0.4,0.1-1,0-1.1-0.6c-0.2-0.6,0.3-0.7,0.6-0.9C93.5,94.1,93.7,94.3,94,94.5
			L94,94.5z"/>
		<path class="st0" d="M182.3,97.6c0.7,0.9,1.1,2.1,1.2,3.4c-0.1,0.3,0.2,0.7,0,0.9h-0.2c-2.1-1.5-2.6-3.7-3.4-5.8
			c-0.2-0.1-0.2-0.3-0.2-0.5c0.5-0.4,0.8,0.4,1.3,0.6L182.3,97.6L182.3,97.6z"/>
		<path class="st0" d="M100.1,96C100.1,96,100.1,96.1,100.1,96c-1.8,1.4-4.5,2.2-6.6,0.9c0-0.1,0-0.4,0.2-0.4
			c1.4-0.4,2.7-1.1,4.1-0.9L100.1,96L100.1,96z"/>
		<path class="st0" d="M89.4,96.2c-1.6,1-3.1,2.9-5,3.4c-0.4,0.1-0.6,0.7-1.1,0.4c0.8-2.6,3.6-3.9,6.1-4.2V96.2L89.4,96.2z"/>
		<path class="st0" d="M179.5,98.4c0.1,0.4,0,0.9-0.4,1c-0.2,0.2-0.7,0.2-0.9,0c-0.4-0.2-0.4-0.6-0.4-0.9c0.1-0.3,0.5-0.4,0.7-0.5
			C179,98,179.3,98,179.5,98.4L179.5,98.4z"/>
		<path class="st0" d="M175.6,98.6c-0.3,0.7-1.1,1-1.7,1.2c-1.6,0.6-3.1-0.2-4.5-0.6c0-0.4,0.5-0.2,0.8-0.5c1.6-0.3,3.2-0.7,4.8-0.2
			C175.2,98.5,175.5,98.4,175.6,98.6L175.6,98.6z"/>
		<path class="st0" d="M89.4,100c-0.1,0.2-0.2,0.6-0.6,0.8c-0.3,0.1-0.7,0-0.9-0.2c-0.1-0.3-0.4-0.5-0.2-0.9
			c0.1-0.3,0.5-0.4,0.8-0.5C88.9,99.2,89.3,99.5,89.4,100L89.4,100z"/>
		<path class="st0" d="M92.2,100.4c-0.1,0.3-0.3,0.7-0.7,0.9c-0.4,0.1-0.7-0.1-0.9-0.3c-0.1-0.3-0.3-0.6-0.1-1
			c0.1-0.2,0.4-0.3,0.7-0.4C91.6,99.6,92,100,92.2,100.4L92.2,100.4z"/>
		<path class="st0" d="M178.6,100.9c0,0.4-0.1,0.6-0.3,0.9c-0.2,0.3-0.7,0.4-1,0.2c-0.3,0-0.4-0.4-0.6-0.7c-0.3-0.4,0.2-0.6,0.3-0.9
			C177.6,99.9,178.4,100.2,178.6,100.9L178.6,100.9z"/>
		<path class="st0" d="M180.7,100.8c0,0.2,0.2,0.5,0.1,0.7c-0.3,0.2-0.5,0.9-1,0.6c-0.3,0.1-0.4-0.3-0.6-0.4c-0.2-0.5,0-1.2,0.6-1.3
			C180.2,100.3,180.5,100.6,180.7,100.8L180.7,100.8z"/>
		<path class="st0" d="M90.5,102.2c0.1,0.5-0.1,1-0.5,1.3c-0.5,0.1-1.2,0.1-1.4-0.5c0-0.5,0-1.1,0.6-1.4
			C89.7,101.5,90.3,101.6,90.5,102.2L90.5,102.2z"/>
		<path class="st0" d="M93.2,102c-0.1,1.3-0.4,2.9-1.7,3.7c-0.8,0.1-1.5,0.9-2.3,0.4v-0.2C90.2,104.4,92,103.3,93.2,102L93.2,102z"
			/>
		<path class="st0" d="M171.2,103.1c0.2,0.3-0.1,0.5-0.3,0.8c-0.3,0.3-0.8,0.2-1.1,0c-0.3-0.1-0.4-0.6-0.2-0.9
			c0.1-0.3,0.4-0.4,0.6-0.5C170.6,102.4,171,102.7,171.2,103.1L171.2,103.1z"/>
		<path class="st0" d="M97.9,105.2c0.7,1.1,0.3,2.6,0.7,3.7c-0.8,0.1-1.1-0.8-1.6-1.3c-1-1.4-0.9-3.3-1.4-5c0.1-0.1,0.2-0.1,0.3-0.1
			c0.7,0.5,1.2,1.4,1.8,2C97.6,105,97.9,105,97.9,105.2L97.9,105.2z"/>
		<path class="st0" d="M173.6,103.4c0,0.4-0.4,0.5-0.7,0.7c-0.3,0-0.6-0.2-0.9-0.4c-0.1-0.5,0.2-0.6,0.5-0.9
			C173,102.7,173.5,102.9,173.6,103.4L173.6,103.4z"/>
		<path class="st0" d="M179.2,107.7c0,0.1,0,0.4-0.3,0.3h-0.2c-1.4-1.2-2.7-2.6-2.5-4.5l0.3,0C177.7,104.5,179.2,105.7,179.2,107.7
			L179.2,107.7z"/>
		<path class="st0" d="M175.7,106.1c0,0.4-0.2,0.7-0.4,0.9c-0.5,0.1-1.3,0.1-1.4-0.6c0-0.5,0.5-0.7,0.7-0.9
			C175.1,105.3,175.5,105.7,175.7,106.1L175.7,106.1z"/>
		<path class="st0" d="M172.6,107.1c-0.7,1.8-2.5,2.7-3.7,4c-0.2-0.1-0.1-0.5-0.1-0.7c0.5-1.8,1.9-3.6,3.6-4.3
			C173.2,106.2,172.4,106.8,172.6,107.1L172.6,107.1z"/>
		<path class="st0" d="M176.1,108.6c0,0.4-0.4,0.6-0.7,0.9c-0.4,0-0.8-0.1-1-0.5c0-0.5,0.3-0.6,0.6-0.9
			C175.5,108,175.9,108.2,176.1,108.6L176.1,108.6z"/>
		<path class="st0" d="M141,22.4c0.6,0,1.2,0.5,1.2,1.2c0,0.6-0.5,1.2-1.2,1.2h-14c-0.6,0-1.2-0.5-1.2-1.2c0-0.6,0.5-1.2,1.2-1.2
			H141L141,22.4z M131.2,24.4c1.4,0,0.1-1.7-0.7-1.7h-1.4c-1.4,0-0.1,1.7,0.7,1.7H131.2L131.2,24.4z M136.9,24.4
			c1.4,0,0.1-1.7-0.7-1.7h-1.4c-1.4,0-0.1,1.7,0.7,1.7H136.9L136.9,24.4z M141.1,22.8h-0.5c-1.4,0-0.2,1.7,0.5,1.7
			C142,24.4,142.1,22.8,141.1,22.8L141.1,22.8z"/>
		<path class="st0" d="M139.8,38.4l2.7,1l2.6-1l-1,3.9l2.1-0.4l-0.7,2.4l0.7,2.3l-1.8-0.5l0.8,4.2l-2.6-1l-2.7,1l1.1-4.2l-2.1,0.6
			l0.6-2.4l-0.6-2.3l2,0.3L139.8,38.4L139.8,38.4z M143.8,45.5c0.6,0,0.7-0.8,0.7-1.5c0-1.6-1.3,0-1.9-1.5c-0.5,1.3-1.8,0.1-1.8,1.5
			c0,1,0,1.6,0.9,1.6H143.8L143.8,45.5z M141.1,44.1c0,0.6,0.8,0.2,1.4,0.2s1.4,0.4,1.4-0.2c0-0.9-0.8-0.6-1.4-0.6
			S141.1,43.2,141.1,44.1L141.1,44.1z"/>
		<polygon class="st0" points="133.6,44.2 133.6,43.7 133.1,43.6 133.5,43.3 133.3,42.9 133.7,42.9 134,42.4 134.3,42.9 134.7,42.9 
			134.5,43.3 134.9,43.6 134.4,43.7 134.4,44.2 134,43.9 133.6,44.2 		"/>
		<polygon class="st0" points="131.5,46.9 131.5,46.4 131,46.3 131.4,45.9 131.2,45.5 131.6,45.6 131.9,45.1 132.2,45.6 132.7,45.5 
			132.4,45.9 132.8,46.3 132.3,46.4 132.3,46.9 131.9,46.6 131.5,46.9 		"/>
		<polygon class="st0" points="135,46.6 135,46.1 134.6,46 134.9,45.6 134.7,45.2 135.2,45.3 135.4,44.8 135.7,45.2 136.2,45.2 
			136,45.6 136.3,46 135.9,46.1 135.9,46.6 135.4,46.2 135,46.6 		"/>
		<polygon class="st0" points="135.4,48.5 135.4,48.3 135.2,48.2 135.4,48 135.2,47.8 135.5,47.8 135.7,47.5 135.8,47.8 136.1,47.8 
			136,48 136.2,48.2 135.9,48.3 135.9,48.5 135.7,48.4 135.4,48.5 		"/>
		<polygon class="st0" points="132.2,50.8 132.2,50 131.4,49.8 132,49.2 131.6,48.5 132.4,48.6 132.9,47.8 133.3,48.6 134.1,48.5 
			133.8,49.2 134.4,49.8 133.6,50 133.6,50.8 132.9,50.3 132.2,50.8 		"/>
		<polygon class="st0" points="133.8,6.1 135.5,10.1 139.7,8.9 137.6,12.8 141.1,15.3 136.8,16 137.1,20.4 133.8,17.5 130.6,20.4 
			130.8,16 126.5,15.3 130.1,12.8 128,8.9 132.2,10.1 133.8,6.1 		"/>
		<path class="st0" d="M118.6,97.6c-0.5,0.2-0.7,0.3-0.6,0.8l0.6,2.5c0.1,0.5,0.1,1.2-0.2,1.6c-0.4,0.5-1.1,0.9-1.7,1
			c-0.4,0.1-1.3,0.3-2,0c-0.5-0.2-0.8-0.4-1-1.3l-0.6-2.6c-0.2-0.7-0.4-0.6-0.9-0.5l0-0.2l3.2-0.8l0,0.2c-0.6,0.2-0.9,0.2-0.7,0.9
			l0.6,2.6c0.1,0.4,0.4,1.5,1.7,1.2c1.6-0.4,1.4-1.6,1.3-2.1l-0.6-2.4c-0.1-0.5-0.3-0.7-1.1-0.6l0-0.2l2.1-0.5L118.6,97.6
			L118.6,97.6z"/>
		<path class="st0" d="M123.3,98.1c-0.3-0.5-1.1-1.3-2.2-1c-0.5,0.1-1,0.5-0.8,1c0.1,0.4,0.3,0.6,1.2,0.7L123,99
			c0.3,0.1,1.2,0.4,1.4,1.2c0.2,0.7-0.2,1.8-2,2.2c-0.9,0.2-1.4,0-1.7,0.1c-0.2,0-0.2,0.2-0.2,0.3l-0.3,0.1l-0.4-1.9l0.3-0.1
			c0.4,0.8,1.1,1.5,2.3,1.3c1.1-0.3,1-1,1-1.1c-0.1-0.5-0.6-0.6-1.3-0.7l-0.7-0.1c-1.7-0.3-1.9-1-2-1.3c-0.1-0.5-0.1-1.6,1.7-2
			c0.8-0.2,1.3,0,1.5-0.1c0.2,0,0.2-0.2,0.3-0.3l0.3-0.1l0.4,1.7L123.3,98.1L123.3,98.1z"/>
		<path class="st0" d="M129.5,101.2l-3.4,0.3l0-0.2c0.7-0.1,0.9-0.2,0.9-0.8l-0.4-4.2c-0.7,0.1-1.6,0.2-1.7,1.5l-0.3,0l-0.1-1.6
			l5.7-0.6l0.2,1.6l-0.3,0c-0.3-1.3-1.3-1.2-2-1.2l0.4,4.2c0.1,0.7,0.3,0.7,1,0.6L129.5,101.2L129.5,101.2z"/>
		<path class="st0" d="M137.5,101.2l-2,0l-1.9-2.6l-0.3,0l0,1.6c0,0.6,0.2,0.7,0.8,0.8l0,0.2l-3.2-0.1l0-0.2
			c0.7-0.1,0.8-0.1,0.9-0.7l0.1-3.6c0-0.7-0.3-0.7-0.8-0.8l0-0.2l3.1,0.1c0.7,0,2.7,0.1,2.7,1.5c0,1-1,1.2-1.5,1.4l1.9,2.3
			c0.1,0.1,0.3,0.2,0.4,0.2L137.5,101.2L137.5,101.2z M133.3,98.3c1.3,0,1.8-0.2,1.8-1.2c0-0.8-0.4-1.2-1.1-1.2
			c-0.5,0-0.5,0.1-0.6,0.3L133.3,98.3L133.3,98.3z"/>
		<path class="st0" d="M143.8,102l-3.1-0.4l0-0.2c0.6,0,0.8,0,0.8-0.2c0-0.2-0.2-0.8-0.3-1.1l-2.1-0.3c-0.3,0.5-0.5,0.9-0.5,1
			c0,0.3,0.4,0.4,0.7,0.4l0,0.2l-1.9-0.2l0-0.2c0.5,0,0.7-0.3,1-0.8l2.7-4.1l0.3,0l1.6,4.5c0.3,0.9,0.4,1.2,0.9,1.2L143.8,102
			L143.8,102z M141.1,99.8l-0.7-2.1l-1.1,1.8L141.1,99.8L141.1,99.8z"/>
		<path class="st0" d="M149.4,103.2l-5.5-1l0-0.2c0.5,0,0.8,0.1,0.9-0.4l0.7-3.8c0.1-0.5-0.3-0.6-0.7-0.7l0-0.2l3.3,0.6l0,0.2
			c-0.7-0.1-1-0.1-1.1,0.6l-0.7,3.7c-0.1,0.4,0.1,0.5,0.8,0.6c1.4,0.3,2.1-0.3,2.7-1.1l0.3,0L149.4,103.2L149.4,103.2z"/>
		<path class="st0" d="M153,104l-3.3-0.7l0-0.2c0.5,0.1,0.9,0.1,1-0.4l0.8-3.8c0.1-0.5-0.3-0.6-0.8-0.7l0-0.2l3.3,0.7l0,0.2
			c-0.4-0.1-0.9-0.2-1,0.4l-0.8,3.8c-0.1,0.5,0.3,0.6,0.8,0.7L153,104L153,104z"/>
		<path class="st0" d="M159.7,104.8l-3.1-0.3l0-0.2c0.6,0,0.8,0,0.8-0.2c0-0.2-0.2-0.8-0.3-1.1l-2.2-0.2c-0.3,0.5-0.5,0.9-0.5,1
			c0,0.3,0.4,0.4,0.7,0.4l0,0.2l-1.9-0.2l0-0.2c0.5,0,0.7-0.3,1-0.8l2.6-4.2l0.3,0l1.7,4.4c0.3,0.9,0.5,1.2,0.9,1.2L159.7,104.8
			L159.7,104.8z M157,102.6l-0.8-2.1l-1.1,1.9L157,102.6L157,102.6z"/>
		<path class="st0" d="M135.1,39.7c0-1.9-1.1-0.1-1.7-1.8c-0.4,1.4-1.7,0.2-1.7,1.7c0,0.6,0.1,0.9,0.4,1.1v0.6
			c0,0.1,0.1,0.3,0.3,0.3h2.1c0.1,0,0.3-0.1,0.3-0.3v-0.6C135,40.5,135.1,40.2,135.1,39.7L135.1,39.7z M133.5,40.1
			c-0.6,0-1.3,0.4-1.3-0.3c0-1,0.6-0.7,1.2-0.7c0.6,0,1.4-0.2,1.4,0.7C134.8,40.5,134,40.1,133.5,40.1L133.5,40.1z"/>
		<path class="st0" d="M152,63.5c0.5,0,0.9-0.4,0.9-0.8c0-0.4-0.4-0.8-0.9-0.8c-0.5,0-0.9,0.4-0.9,0.8
			C151.1,63.2,151.5,63.5,152,63.5L152,63.5z"/>
		<path class="st0" d="M147.8,34.8c0,0-0.4,0.7-0.4,0.8c0,0.3,0.2,0.5,0.4,0.5c0.2,0,0.4-0.2,0.4-0.5
			C148.3,35.6,147.8,34.8,147.8,34.8L147.8,34.8z"/>
		<path class="st0" d="M119.4,34.8c0,0-0.4,0.7-0.4,0.8c0,0.3,0.2,0.5,0.4,0.5s0.4-0.2,0.4-0.5C119.8,35.6,119.4,34.8,119.4,34.8
			L119.4,34.8z"/>
		<path class="st0" d="M126.5,34.8c0,0-0.4,0.7-0.4,0.8c0,0.3,0.2,0.5,0.4,0.5c0.2,0,0.4-0.2,0.4-0.5
			C126.9,35.6,126.5,34.8,126.5,34.8L126.5,34.8z"/>
		<path class="st0" d="M133.6,34.8c0,0-0.4,0.7-0.4,0.8c0,0.3,0.2,0.5,0.4,0.5c0.2,0,0.4-0.2,0.4-0.5
			C134,35.6,133.6,34.8,133.6,34.8L133.6,34.8z"/>
		<path class="st0" d="M140.7,34.8c0,0-0.4,0.7-0.4,0.8c0,0.3,0.2,0.5,0.4,0.5c0.2,0,0.4-0.2,0.4-0.5
			C141.1,35.6,140.7,34.8,140.7,34.8L140.7,34.8z"/>
		<path class="st0" d="M119.4,44.6c0,0,0.4,0.7,0.4,0.8c0,0.3-0.2,0.5-0.4,0.5s-0.4-0.2-0.4-0.5C119,45.4,119.4,44.6,119.4,44.6
			L119.4,44.6z"/>
		<path class="st0" d="M119.4,54.1c0,0,0.4,0.7,0.4,0.8c0,0.3-0.2,0.5-0.4,0.5s-0.4-0.2-0.4-0.5C119,54.9,119.4,54.1,119.4,54.1
			L119.4,54.1z"/>
		<path class="st0" d="M120.5,61.6c0,0,0.4,0.7,0.4,0.8c0,0.3-0.2,0.5-0.4,0.5c-0.2,0-0.4-0.2-0.4-0.5
			C120.1,62.4,120.5,61.6,120.5,61.6L120.5,61.6z"/>
		<path class="st0" d="M126.5,65.6c0,0,0.4,0.7,0.4,0.8c0,0.3-0.2,0.5-0.4,0.5c-0.2,0-0.4-0.2-0.4-0.5
			C126.1,66.4,126.5,65.6,126.5,65.6L126.5,65.6z"/>
		<path class="st0" d="M148.2,44.6c0,0-0.4,0.7-0.4,0.8c0,0.3,0.2,0.5,0.4,0.5c0.2,0,0.4-0.2,0.4-0.5
			C148.6,45.4,148.2,44.6,148.2,44.6L148.2,44.6z"/>
		<path class="st0" d="M148.2,54.1c0,0-0.4,0.7-0.4,0.8c0,0.3,0.2,0.5,0.4,0.5c0.2,0,0.4-0.2,0.4-0.5
			C148.6,54.9,148.2,54.1,148.2,54.1L148.2,54.1z"/>
		<path class="st0" d="M147.1,61.6c0,0-0.4,0.7-0.4,0.8c0,0.3,0.2,0.5,0.4,0.5c0.2,0,0.4-0.2,0.4-0.5
			C147.5,62.4,147.1,61.6,147.1,61.6L147.1,61.6z"/>
		<path class="st0" d="M141.1,65.6c0,0-0.4,0.7-0.4,0.8c0,0.3,0.2,0.5,0.4,0.5c0.2,0,0.4-0.2,0.4-0.5
			C141.5,66.4,141.1,65.6,141.1,65.6L141.1,65.6z"/>
		<path class="st0" d="M133.8,69.8c0,0-0.4,0.7-0.4,0.8c0,0.3,0.2,0.5,0.4,0.5c0.2,0,0.4-0.2,0.4-0.5
			C134.2,70.6,133.8,69.8,133.8,69.8L133.8,69.8z"/>
		<path class="st0" d="M145.4,55.7c0.1,0.1,0.3,0.2,0.6,0.1l0.3-0.8c0-0.1-0.3-0.4-0.5-0.3c-0.8,0.2-1.6,0.3-2,1
			c0,0.5,0.4,0.9,0.7,1.2c0.3-0.1,0.3,0.2,0.5,0.3c0,0.2-0.1,0.4-0.3,0.4c-0.5-0.5-1.5,0.2-1.9-0.5c0.2-0.7,0.5-1.4,0-2.1
			c0-0.1,0.3-0.3,0.1-0.4c-0.2-0.6-0.9-0.1-1.3-0.1c-0.7-0.1-1.2,0.3-1.6,0.8c0,0.2,0.1,0.5,0.4,0.7c0.2,0,0.3,0,0.3,0.2l-0.4,0.3
			c0.1,0.1,0.1,0.3,0.2,0.5c-0.3,0.1-0.6-0.3-0.8-0.5c0-0.4,0-1-0.4-1.1c-0.1,0-0.4,0.1-0.4,0.1c-0.1,0.1-0.2,0.4-0.2,0.7
			c0,0.3,0.2,0.8,0.2,0.8s1.4,1,1.7,1.7c-0.4,0.8-0.4,1.9-1.3,2.4c-0.3,0.2-0.3,0.5-0.3,0.7l0.2,0.2c0.6-0.3,1.7-0.4,1.6-1.4
			c0.2-0.4,0.4-0.9,0.8-1.2c0.4-0.1,0.9,0.1,1,0.5c-0.1,0.7-0.6,1.1-1.2,1.4c-0.1,0.1,0,0.2,0,0.4c0.2,0.3,0.7,0.2,0.9,0.1
			c0.8-0.5,1.1-1.4,1.7-1.7c0.1,0.5-0.9,0.6-0.3,1c0.4-0.1,0.9,0,1.2-0.5c-0.3-0.8,1.1-1.1,0.2-1.8c0-0.7,0.7-0.9,0.7-1.7
			c-0.3-0.7-1.1-0.7-1.3-1.4C144.7,55.5,145.1,55.5,145.4,55.7L145.4,55.7z"/>
		<path class="st0" d="M112.7,63.9c0.5,0,0.9-0.4,0.9-0.8c0-0.4-0.4-0.8-0.9-0.8c-0.5,0-0.9,0.4-0.9,0.8
			C111.8,63.5,112.2,63.9,112.7,63.9L112.7,63.9z"/>
		<path class="st0" d="M66.6,90.8c0.5,0,0.9-0.4,0.9-0.8c0-0.5-0.4-0.8-0.9-0.8c-0.5,0-0.9,0.4-0.9,0.8
			C65.7,90.5,66.1,90.8,66.6,90.8L66.6,90.8z"/>
		<path class="st0" d="M95.9,97.4L95.9,97.4l-0.1-0.1h0v0C95.8,97.4,95.8,97.4,95.9,97.4L95.9,97.4h-0.2v0c0,0,0,0,0,0v-0.1
			c0,0,0,0,0,0v0h0.1c0,0,0.1,0,0.1,0C95.9,97.3,95.9,97.3,95.9,97.4L95.9,97.4C95.9,97.4,95.9,97.4,95.9,97.4L95.9,97.4L95.9,97.4z
			 M95.8,97.3C95.8,97.3,95.9,97.3,95.8,97.3C95.9,97.2,95.8,97.2,95.8,97.3C95.8,97.2,95.8,97.2,95.8,97.3L95.8,97.3L95.8,97.3z"/>
		<path class="st0" d="M96,97.3C96,97.2,96,97.2,96,97.3C96,97.2,96,97.2,96,97.3C96,97.3,96,97.3,96,97.3L96,97.3
			C96,97.3,96.1,97.3,96,97.3c0,0.1,0,0.1-0.1,0.1c0,0,0,0,0,0c0,0,0,0,0,0h0v-0.1h0c0,0,0,0.1,0.1,0.1C96,97.4,96,97.3,96,97.3
			C96,97.3,96,97.3,96,97.3L96,97.3c-0.1,0-0.1,0-0.1,0C95.9,97.2,95.9,97.2,96,97.3C96,97.2,96,97.2,96,97.3
			C96,97.2,96,97.2,96,97.3L96,97.3L96,97.3L96,97.3L96,97.3z"/>
		<path class="st0" d="M96.3,97.2C96.3,97.2,96.3,97.2,96.3,97.2l-0.1,0.2h0l0-0.1h0l-0.1,0.1h0l-0.1-0.1c0,0,0,0,0,0v0h0.1v0
			c0,0,0,0,0,0c0,0,0,0,0,0l0,0.1h0l0-0.1l0,0c0,0,0,0,0,0v0L96.3,97.2L96.3,97.2C96.3,97.2,96.2,97.2,96.3,97.2
			C96.2,97.2,96.2,97.2,96.3,97.2l-0.1,0.1h0L96.3,97.2C96.3,97.2,96.3,97.2,96.3,97.2C96.3,97.2,96.3,97.2,96.3,97.2L96.3,97.2
			L96.3,97.2L96.3,97.2L96.3,97.2z"/>
		<path class="st0" d="M96.4,97.4C96.4,97.4,96.4,97.4,96.4,97.4C96.4,97.3,96.4,97.3,96.4,97.4C96.4,97.3,96.4,97.3,96.4,97.4
			c0-0.1,0-0.1,0-0.1c0,0,0-0.1,0.1-0.1c0,0,0.1,0,0.1,0.1C96.5,97.3,96.4,97.4,96.4,97.4L96.4,97.4L96.4,97.4z M96.4,97.3
			C96.4,97.3,96.4,97.3,96.4,97.3C96.4,97.3,96.4,97.3,96.4,97.3C96.4,97.2,96.4,97.2,96.4,97.3C96.4,97.2,96.4,97.2,96.4,97.3
			C96.4,97.3,96.4,97.3,96.4,97.3L96.4,97.3z"/>
		<path class="st0" d="M96.5,97.3C96.5,97.3,96.6,97.3,96.5,97.3C96.6,97.3,96.6,97.3,96.5,97.3c0.1,0.1,0.1,0.1,0,0.1
			C96.5,97.4,96.5,97.4,96.5,97.3C96.5,97.3,96.5,97.3,96.5,97.3C96.5,97.3,96.5,97.4,96.5,97.3C96.6,97.4,96.6,97.4,96.5,97.3
			C96.6,97.3,96.6,97.3,96.5,97.3C96.5,97.3,96.5,97.3,96.5,97.3L96.5,97.3L96.5,97.3L96.5,97.3L96.5,97.3L96.5,97.3L96.5,97.3z"/>
		<path class="st0" d="M150.2,33.7L150.2,33.7l-32.8,0v0h0l0,25.1c0,2.6,1.1,4.8,2.6,5.5l12.6,8c0.3,0.3,0.7,0.5,1.2,0.5
			c0.4,0,0.8-0.2,1-0.4l12.8-8.1c1.5-0.7,2.6-2.9,2.6-5.5L150.2,33.7L150.2,33.7L150.2,33.7z M149.3,59.1c-0.2,1.9-0.8,3.5-2.1,4.4
			l-12.4,7.9h-0.1c-0.3,0.2-0.6,0.3-1,0.3c-0.4,0-0.7-0.1-1-0.4l-12.4-7.9c-1.3-0.9-2-2.5-2.1-4.4V34.6h31V59.1L149.3,59.1z"/>
		<path class="st0" d="M138.2,70.3l0.4-0.2C138.4,70.1,138.3,70.2,138.2,70.3L138.2,70.3z"/>
		<path class="st0" d="M113.4,104.6l-3.1,0.4l0-0.2c0.6-0.1,0.8-0.1,0.7-0.4c0-0.2-0.4-0.8-0.6-1l-2.1,0.3c-0.2,0.6-0.3,1-0.3,1.1
			c0,0.3,0.5,0.3,0.8,0.3l0,0.2l-1.9,0.2l0-0.2c0.5-0.1,0.6-0.4,0.8-1l1.6-4.6l0.3,0l2.6,4c0.5,0.8,0.7,1.1,1.2,1L113.4,104.6
			L113.4,104.6z M110.3,103l-1.2-1.8l-0.7,2.1L110.3,103L110.3,103z"/>
		<path class="st0" d="M167.8,92.8c-0.6-1.5-1.7-2.5-3.2-2.9c-1.5-0.3-3.1-0.1-4.1,1c-1.7,1.4-0.5,3.7-0.5,5.5c0,0.4,0,0.7-0.3,0.9
			c-6.8-0.6-13.2-2.3-20-3c-1.6-0.3-3.1-0.2-4.6-0.5l-1.9-0.2c-5.9,0.2-11.8,0.5-17.3,1.9c-1.2,0.4-2.5,0.5-3.7,0.9
			c-0.8-0.1-1.6,0.5-2.4,0.2l-1.6,0.4c-0.1,0-0.3,0-0.5,0c-0.8-1.9,1.5-3.1,0.8-5c-0.6-1.1-1.8-2.1-3.3-1.9c-1.6-0.2-3,0.7-3.8,1.9
			c-1.1,2.4,0.3,4.8,0.7,7.2c-0.1,0.8,0.8,1.6,0,2.2c-1.5-1-3.5-1.6-5.3-1.1c-0.6,0.3-1.6-0.1-1.9,0.6c2,1.1,4.6,0.9,6.9,0.9
			c0.3-0.1,0.5-0.1,0.7,0c0.2,1.2-0.2,2.9,0.5,4c0.8,1.1,2.3,1.4,3.6,1.6c4.3-0.1,8.2-1.4,12.2-2.4c0.6,0,1.1-0.4,1.7-0.4
			c2.1-0.5,4.4-0.9,6.7-0.9c-1,1.3-1.6,2.7-2,4.3c-0.6,1.3,1,1.5,1.5,2.2c-1.5,0.4-2.5,1.4-3.9,2c-3-0.1-5.6,1-8.4,1.4
			c0,0.6,1,0.4,1.1,1c-0.1,0.4-0.6,0.5-0.9,0.7c0,0.3,0,0.3,0.3,0.4c0.3-0.3,0.9-0.1,1.2-0.4c0.9,0,1.7-0.3,2.6-0.3
			c0.8-0.3,1.7-0.4,2.4-0.9c1-0.3,1.6-0.9,2.6-1.2c1.4,0,2.7-0.5,4-0.6v0.3c-1.1,1.8-2.2,3.6-3.3,5.2c-0.2,0.3,0,0.7,0.3,0.8
			c0.7,0.2,1.3,0,1.8-0.3c1-1.7,1.9-3.3,2.7-5.1c0.3-1.6,1.5-2.5,2.7-3.6c0.2-0.1,0.5-0.4,0.7-0.1c-0.9,1.1-1.6,2.1-2.3,3.3
			c-0.4,1.3-0.5,3,0.7,4.1c0.6,0.5,1.4,0.3,2.2,0.4c1.8-0.9,4.2,0.6,5.6-1.2c0.8-0.1,1,0.9,1.5,1.3c0.8,0.2,1.6,1,2.5,0.5
			c0-0.5-0.6-1-0.9-1.5c-0.6-1-1.3-1.8-1.8-2.7c-0.2-0.7-0.7-1.1-0.8-1.8c0.8,0.3,1.6,0.9,2.5,1c0.8,0.3,1.8,0.3,2.5,0.8
			c0.6,0.8,1.6,1.3,2.4,1.8c1.2,0.6,2.5,0.7,3.7,1.1c0.5,0,1.2,0.4,1.5,0c-0.2-0.2-0.4-0.4-0.7-0.5c-0.1-0.6,0.8-0.3,1.2-0.8
			c-0.1-0.2-0.3-0.3-0.5-0.4c-0.7-0.4-2.4-0.5-2.8-0.7c-0.6-0.1-1.1-0.3-1.6-0.5c-2.8,0-4.4-2.6-6.6-3.5c0.5-0.5,1.3-0.9,1.6-1.6
			c0.4-0.7,0.6-1.8,0.1-2.5c-0.4-1.5-2.3-1.3-3.4-2.1l0.1-0.1c1.8-0.1,3.4,0.3,5.1,0.7c4.5,0.6,8.7,2.3,13.4,2.4
			c2.6,0,5.8,0.1,7.1-2.4c0.2-1.5,0.5-2.9,0.8-4.4C166.5,97.6,168,95.4,167.8,92.8L167.8,92.8z M116.9,114.5l-0.7-0.6
			c0.3-0.4,1-0.2,1.6-0.5c1.2-0.4,2.6-0.9,4-0.6C120.4,113.9,118.6,114.1,116.9,114.5L116.9,114.5z M146.3,113.7
			c1.1,0.5,3.4,1,5,1.2c-0.1,0.6-1.3,0-1.2,0.9c-1.5-0.6-3.2-0.9-4.2-2C146.1,113.8,146.1,113.7,146.3,113.7L146.3,113.7z
			 M102.1,93.5c0.1-0.9,0.3-1.8,1.1-2.4c1.1-0.6,2.7-0.5,3.7,0.1c0.3,0.2,0.6,0.5,0.8,0.9c0.2,0.8-0.1,1.7-0.7,2.1h-0.5
			c0-0.8,0-1.5,0.3-2.1c0-0.6-0.5-0.6-0.9-0.9c-0.8-0.2-1.5,0.1-2.1,0.5c-0.5,0.6-0.9,1.3-0.6,2.1c0.3,0.5,0,1.2,0.2,1.8l-0.1,0.2
			C102.7,95.3,102,94.6,102.1,93.5L102.1,93.5z M104.3,94.9c0.7,0.5,1.7,0.3,2.5,0.4c0.1,0.5,0.1,1.2-0.2,1.6
			c-0.8-0.2-1.8-0.1-2.3-0.9C104.5,95.7,104.2,95.3,104.3,94.9L104.3,94.9z M104.2,93.3c0.1-0.4,0-0.9,0.5-1
			c0.3-0.1,0.8-0.1,0.9,0.3c0,0.6-0.1,1.1-0.2,1.7C104.7,94.2,104.4,93.9,104.2,93.3L104.2,93.3z M126.3,108.5
			c-0.2-1.7,0.4-3.1,1.5-4.3c0.7-0.1,1.4-0.3,2,0.1c-1.2,0.3-2.8,0.6-3.1,2.2c0,0.6-0.1,0.9,0.1,1.5c0.5,0.9,1.7,0.5,2.4,1.2
			c0,0.2-0.2,0.5-0.4,0.6C128,109.3,127,109.1,126.3,108.5L126.3,108.5z M124.6,111.8c1.1-0.5,2.3-1.5,3.6-1
			C127.3,111.5,125.8,111.7,124.6,111.8L124.6,111.8z M129.1,112.3c-0.7,1.5-1.4,3-2.3,4.5c-0.1,0.2-0.5,0.3-0.8,0.3
			c0-0.7,0.7-1.2,0.9-1.8c1-1.3,1.3-2.7,2.4-3.9C129.6,111.7,129.1,111.9,129.1,112.3L129.1,112.3z M130.3,109.5v0.2h-0.1
			L130.3,109.5L130.3,109.5L130.3,109.5C130.3,109.5,130.2,109.5,130.3,109.5L130.3,109.5L130.3,109.5z M129.8,108.2
			c-0.8-0.1-1.6-0.3-2.3-0.6c-0.5-0.5,0-1,0-1.5c0.7-1,2.5-1.6,3.4-0.6C130.9,106.6,130.5,107.5,129.8,108.2L129.8,108.2z
			 M130.9,108.2c0.1-0.6,0.4-1.4,0.8-2C131.6,106.9,131.3,107.7,130.9,108.2L130.9,108.2z M131.4,104.4c-0.6-0.1-0.9-0.9-1.6-0.9
			c0.6-0.2,1.1-0.1,1.8,0C131.8,103.8,131.4,104.1,131.4,104.4L131.4,104.4z M131.9,105.8L131.9,105.8l0-0.5h0V105.8L131.9,105.8z
			 M132,108c0-0.2,0.1-0.4,0.1-0.7c0.2-0.2,0.5,0.2,0.6,0.3C132.6,107.9,132.3,108,132,108L132,108z M132.7,105.1
			c0.2-0.7,0.3-1.2,0.7-1.8c0.5,0,0.9,0,1.3,0.2c0.1,1,1.3,2.2,0,3c-0.4,0.2-1,0.6-1.5,0.2C132.6,106.2,132.5,105.7,132.7,105.1
			L132.7,105.1z M136.1,103.7c-0.1-0.4,0.4-0.1,0.6-0.3l1.5,0.1C137.5,103.4,136.5,105.2,136.1,103.7L136.1,103.7z M138.5,104.3
			c-0.6,0.2-1,0.9-1.6,1C137.2,104.8,137.9,104.3,138.5,104.3L138.5,104.3z M136.5,107.3v0.1h0L136.5,107.3L136.5,107.3L136.5,107.3
			z M136.6,110.2c0,0.1,0,0.2-0.1,0.3l-1.1-0.9C136,109.6,136.3,109.8,136.6,110.2L136.6,110.2z M135.3,108.7c0.1-0.1,0.3-0.1,0.4,0
			H135.3L135.3,108.7z M134.7,108c0.2-0.3,0.4-0.7,0.8-0.7c0,0,0,0.1,0.1,0.1C135.2,107.7,135,107.9,134.7,108L134.7,108z
			 M133.6,107.9h-0.2l0.3-0.3C133.8,107.7,133.6,107.8,133.6,107.9L133.6,107.9z M133.7,109.7c0.6-0.7,1.2,0.4,1.4,0.9
			c0.7,1,2.5,2,1.8,3.4c-0.9,0.8-2.3,0-3.3,0.7c-0.5,0-1.4,0.1-1.7-0.4C132.5,112.7,133,111,133.7,109.7L133.7,109.7z M132.4,110.6
			l0.2-0.4c-0.4,1.1-0.9,2.3-1.6,3.4C130.8,112.5,132,111.6,132.4,110.6L132.4,110.6z M134.5,116.3c-0.9,0-2.3,0.6-3.1-0.2
			c0-0.4-0.4-0.6-0.3-0.9c0.8-0.3,1.4,0.6,2.1,0c1.1,0,2.2-0.1,3.3,0.1c0.5,0.1,1.3-0.9,1.4,0.1
			C137.5,116.9,135.6,115.8,134.5,116.3L134.5,116.3z M137.2,109.4v-0.1h0.1L137.2,109.4L137.2,109.4L137.2,109.4z M137.5,112.4
			c0,0.5,0.5,0.7,0.2,1.1C137.7,113.3,137.4,112.9,137.5,112.4L137.5,112.4z M138.8,115.3l-0.2,0.1c-0.2-0.2-0.1-0.7-0.1-1
			C138.8,114.6,139,114.9,138.8,115.3L138.8,115.3z M141.2,116.4c0,0.1-0.3,0.1-0.4,0c-1.4-1.8-2.1-3.7-3-5.7l0.2,0
			C139.2,112.6,140.1,114.6,141.2,116.4L141.2,116.4z M142.9,112c-0.1,0-0.1,0.1-0.1,0.2c-1.4,0-2.3-0.8-3.3-1.5l0-0.2
			C140.8,110.6,141.8,111.4,142.9,112L142.9,112z M141.7,105.7c0.6,0.1,0.6,0.8,0.7,1.2c0,1-0.6,1.9-1.6,2.3
			c-0.5,0.3-1.3,0.4-1.8,0.2c1.1,0,2.4-0.5,2.8-1.6L141.7,105.7L141.7,105.7z M140.7,105.5c0.2,0.7,0.7,1.3,0.4,2.1
			c-0.5,0.9-1.4,0.9-2.3,1.1c-0.4,0-0.8-0.1-1.1-0.3c0-0.2,0-0.3-0.2-0.5c0.1-0.6-1.1-1.2-0.2-1.8
			C138.1,105.4,139.9,103.8,140.7,105.5L140.7,105.5z M164.6,102.1c-0.4,0.5,0,1.2-0.5,1.7c0,0.9-0.7,1.3-1.3,1.6
			c-5.6,1.2-11.1-0.7-16.5-1.6c-7.6-1.7-16.4-2.1-24.2-0.4c-3.6,0.7-7.2,1.5-10.6,2.5c-2.2,0.3-4.5,0.6-6.6,0c-1.7-0.8-1-3-1.5-4.5
			c0.1-1.2-0.3-2.1-0.4-3.3c-0.1-0.4-0.2-0.9-0.2-1.2c0.7,0.1,1.4,0.6,2.2,0.8c4,0.8,7.5-0.5,11.2-1.2c3.5-0.8,7.2-1.4,10.9-1.7
			c4.2,0,8.6-0.3,12.6,0.4c1.3,0,2.5,0.4,3.7,0.5c2.6,0.3,5.1,1,7.8,1.2c0.4,0.1,0.9,0.1,1.4,0.2c4.2,0.7,9,1.8,13,0
			C165.5,98.8,164.8,100.4,164.6,102.1L164.6,102.1z M163.3,96.3c0,0.8-0.7,0.6-1,0.9h-1.1c-0.2-0.4-0.1-0.9-0.1-1.3
			C161.7,95.9,162.6,95.9,163.3,96.3L163.3,96.3z M162.8,95.1c0.5-0.5-0.1-3.5,1.3-1.6c0,0.4,0,0.9-0.3,1.2
			C163.5,95,163.1,95.3,162.8,95.1L162.8,95.1z M166.6,94.6c-0.4,0.9-1.1,1.5-2,1.6c0-1.1,1.1-1.9,0.7-3.2c-0.6-0.9-1.8-1.2-3-0.9
			c-0.4,0.3-0.2,0.8-0.4,1.2l-0.2,1.6c-0.9,0-1-0.9-1.3-1.5c0-1,0.5-2,1.5-2.5c0.8-0.4,2-0.3,2.7,0.1c0.6,0.1,1.3,0.4,1.6,1
			C166.9,92.6,166.7,93.8,166.6,94.6L166.6,94.6z"/>
	</g>
</g>
<g id="Aus_Gov">
	<g>
		<path class="st0" d="M16.8,145.2h-6.5L9.4,147c-0.3,0.6-0.4,1.1-0.4,1.5c0,0.5,0.2,0.9,0.6,1.1c0.2,0.1,0.9,0.3,1.8,0.3v0.5H5.3
			V150c0.7-0.1,1.2-0.4,1.6-0.8c0.4-0.5,1-1.4,1.6-2.8l6.6-14.8h0.3l6.7,15.2c0.6,1.4,1.2,2.3,1.6,2.7c0.3,0.3,0.7,0.4,1.3,0.5v0.5
			h-9V150h0.4c0.7,0,1.2-0.1,1.5-0.3c0.2-0.1,0.3-0.4,0.3-0.6c0-0.2,0-0.3-0.1-0.5c0-0.1-0.2-0.4-0.4-1L16.8,145.2z M16.3,144.2
			l-2.8-6.4l-2.8,6.4H16.3z"/>
		<path class="st0" d="M37.2,137.7v10c0,1,0.1,1.6,0.3,1.8c0.2,0.2,0.6,0.4,1.1,0.5v0.5h-5.2v-1.7c-0.6,0.7-1.2,1.3-1.8,1.6
			c-0.6,0.3-1.3,0.5-2.1,0.5c-0.7,0-1.4-0.2-1.9-0.7s-0.9-1-1.1-1.6s-0.3-1.6-0.3-3.1v-5.1c0-1-0.1-1.6-0.3-1.8s-0.5-0.4-1.1-0.5
			v-0.5H30v8.7c0,0.9,0,1.5,0.1,1.8c0.1,0.3,0.2,0.5,0.4,0.6c0.2,0.1,0.4,0.2,0.6,0.2c0.3,0,0.6-0.1,0.9-0.3
			c0.4-0.2,0.8-0.7,1.3-1.4v-6.8c0-1-0.1-1.6-0.3-1.8s-0.5-0.4-1.1-0.5v-0.5H37.2z"/>
		<path class="st0" d="M47.1,137.3l0.2,4.4h-0.5c-0.6-1.3-1.1-2.2-1.7-2.7s-1.2-0.7-1.8-0.7c-0.4,0-0.7,0.1-1,0.4s-0.4,0.5-0.4,0.9
			c0,0.2,0.1,0.5,0.3,0.7c0.3,0.4,1.1,1,2.4,1.9s2.2,1.7,2.6,2.3s0.6,1.3,0.6,2.1c0,0.7-0.2,1.4-0.5,2.1s-0.9,1.2-1.5,1.6
			s-1.4,0.5-2.1,0.5c-0.6,0-1.4-0.2-2.4-0.6c-0.3-0.1-0.5-0.2-0.6-0.2c-0.3,0-0.6,0.2-0.8,0.7h-0.5l-0.2-4.6h0.5
			c0.4,1.2,1,2.1,1.7,2.7s1.4,0.9,2,0.9c0.4,0,0.8-0.1,1.1-0.4s0.4-0.6,0.4-1c0-0.4-0.1-0.8-0.4-1.1s-0.9-0.8-1.8-1.4
			c-1.4-1-2.3-1.7-2.7-2.2c-0.6-0.7-0.9-1.6-0.9-2.5c0-1,0.3-1.9,1-2.7s1.7-1.2,2.9-1.2c0.7,0,1.4,0.2,2,0.5
			c0.2,0.1,0.4,0.2,0.6,0.2c0.2,0,0.3,0,0.4-0.1s0.3-0.3,0.5-0.6H47.1z"/>
		<path class="st0" d="M53.6,133v4.7h3v1.4h-3v7.9c0,0.7,0,1.2,0.1,1.4s0.2,0.4,0.4,0.5s0.3,0.2,0.5,0.2c0.6,0,1.2-0.5,1.7-1.4
			l0.4,0.3c-0.7,1.8-1.9,2.6-3.6,2.6c-0.8,0-1.5-0.2-2.1-0.7s-0.9-1-1.1-1.5c-0.1-0.3-0.1-1.1-0.1-2.5V139h-1.7v-0.5
			c1.1-0.8,2.1-1.7,2.9-2.6s1.5-1.9,2.1-3H53.6z"/>
		<path class="st0" d="M61.8,137.7v2.9c0.8-1.3,1.6-2.2,2.2-2.6s1.3-0.6,1.8-0.6c0.5,0,0.9,0.2,1.2,0.5s0.5,0.8,0.5,1.3
			c0,0.6-0.1,1.1-0.4,1.4S66.4,141,66,141c-0.5,0-0.9-0.2-1.3-0.5s-0.6-0.5-0.6-0.5c-0.1-0.1-0.2-0.1-0.3-0.1
			c-0.3,0-0.5,0.1-0.8,0.3c-0.4,0.3-0.7,0.8-0.8,1.3c-0.3,0.9-0.4,1.9-0.4,2.9v2.9l0,0.8c0,0.5,0,0.9,0.1,1c0.1,0.2,0.3,0.4,0.5,0.5
			s0.6,0.2,1.1,0.2v0.5h-6.9V150c0.6,0,0.9-0.2,1.1-0.5s0.3-0.9,0.3-2.1v-7.1c0-0.7,0-1.2-0.1-1.4c-0.1-0.3-0.2-0.4-0.4-0.6
			s-0.5-0.2-0.9-0.2v-0.5H61.8z"/>
		<path class="st0" d="M74.6,148.6c-1.6,1.4-3,2.1-4.2,2.1c-0.7,0-1.3-0.2-1.8-0.7s-0.7-1.1-0.7-1.8c0-1,0.4-1.9,1.3-2.6
			s2.7-1.8,5.5-3.1v-1.3c0-1-0.1-1.6-0.2-1.8c-0.1-0.3-0.3-0.5-0.6-0.7c-0.3-0.2-0.6-0.3-1-0.3c-0.6,0-1.1,0.1-1.5,0.4
			c-0.2,0.2-0.4,0.4-0.4,0.6c0,0.2,0.1,0.4,0.4,0.7c0.3,0.4,0.5,0.8,0.5,1.1c0,0.4-0.2,0.8-0.5,1.1c-0.3,0.3-0.8,0.5-1.3,0.5
			c-0.6,0-1.1-0.2-1.4-0.5s-0.6-0.8-0.6-1.2c0-0.7,0.3-1.3,0.8-1.9s1.2-1.1,2.2-1.4c0.9-0.3,1.9-0.5,2.9-0.5c1.2,0,2.2,0.3,2.9,0.8
			c0.7,0.5,1.2,1.1,1.4,1.7c0.1,0.4,0.2,1.3,0.2,2.6v5c0,0.6,0,1,0.1,1.1c0,0.2,0.1,0.3,0.2,0.3c0.1,0.1,0.2,0.1,0.3,0.1
			c0.2,0,0.5-0.2,0.7-0.5l0.4,0.3c-0.5,0.7-0.9,1.2-1.4,1.5c-0.5,0.3-1,0.5-1.7,0.5c-0.7,0-1.3-0.2-1.7-0.5S74.6,149.3,74.6,148.6z
			 M74.6,147.6v-4.3c-1.1,0.6-1.9,1.3-2.5,2.1c-0.4,0.5-0.5,1-0.5,1.5c0,0.4,0.2,0.8,0.5,1.1c0.2,0.2,0.5,0.4,1,0.4
			C73.4,148.3,74,148.1,74.6,147.6z"/>
		<path class="st0" d="M85.1,131.9v15.9c0,0.9,0.1,1.5,0.3,1.7c0.2,0.3,0.6,0.4,1.2,0.4v0.5h-6.9V150c0.6,0,1-0.2,1.3-0.5
			c0.2-0.2,0.3-0.8,0.3-1.7v-13.2c0-0.9-0.1-1.5-0.3-1.7c-0.2-0.3-0.6-0.4-1.2-0.4v-0.5H85.1z"/>
		<path class="st0" d="M91.5,137.7v10.1c0,0.9,0.1,1.5,0.3,1.7c0.2,0.3,0.6,0.4,1.2,0.4v0.5h-6.9V150c0.6,0,1-0.2,1.3-0.5
			c0.2-0.2,0.3-0.8,0.3-1.7v-7.5c0-0.9-0.1-1.5-0.3-1.7c-0.2-0.3-0.6-0.4-1.2-0.4v-0.5H91.5z M89.6,131.5c0.6,0,1.1,0.2,1.5,0.6
			s0.6,0.9,0.6,1.5s-0.2,1.1-0.6,1.5c-0.4,0.4-0.9,0.6-1.5,0.6c-0.6,0-1.1-0.2-1.5-0.6s-0.6-0.9-0.6-1.5s0.2-1.1,0.6-1.5
			S89,131.5,89.6,131.5z"/>
		<path class="st0" d="M99.9,148.6c-1.6,1.4-3,2.1-4.2,2.1c-0.7,0-1.3-0.2-1.8-0.7c-0.5-0.5-0.7-1.1-0.7-1.8c0-1,0.4-1.9,1.3-2.6
			c0.8-0.8,2.7-1.8,5.5-3.1v-1.3c0-1-0.1-1.6-0.2-1.8c-0.1-0.3-0.3-0.5-0.6-0.7c-0.3-0.2-0.6-0.3-1-0.3c-0.6,0-1.1,0.1-1.5,0.4
			c-0.2,0.2-0.4,0.4-0.4,0.6c0,0.2,0.1,0.4,0.4,0.7c0.3,0.4,0.5,0.8,0.5,1.1c0,0.4-0.2,0.8-0.5,1.1c-0.3,0.3-0.8,0.5-1.3,0.5
			c-0.6,0-1.1-0.2-1.4-0.5c-0.4-0.3-0.6-0.8-0.6-1.2c0-0.7,0.3-1.3,0.8-1.9s1.2-1.1,2.2-1.4s1.9-0.5,2.9-0.5c1.2,0,2.2,0.3,2.9,0.8
			c0.7,0.5,1.2,1.1,1.4,1.7c0.1,0.4,0.2,1.3,0.2,2.6v5c0,0.6,0,1,0.1,1.1c0,0.2,0.1,0.3,0.2,0.3c0.1,0.1,0.2,0.1,0.3,0.1
			c0.2,0,0.5-0.2,0.7-0.5l0.4,0.3c-0.5,0.7-0.9,1.2-1.4,1.5c-0.5,0.3-1,0.5-1.7,0.5c-0.7,0-1.3-0.2-1.7-0.5S100,149.3,99.9,148.6z
			 M99.9,147.6v-4.3c-1.1,0.6-1.9,1.3-2.5,2.1c-0.4,0.5-0.5,1-0.5,1.5c0,0.4,0.2,0.8,0.5,1.1c0.2,0.2,0.5,0.4,1,0.4
			C98.8,148.3,99.3,148.1,99.9,147.6z"/>
		<path class="st0" d="M110.7,137.7v1.7c0.7-0.7,1.3-1.2,1.9-1.6s1.2-0.5,1.9-0.5c0.8,0,1.5,0.2,2.1,0.7s0.9,1,1.1,1.7
			c0.1,0.5,0.2,1.5,0.2,3v5c0,1,0.1,1.6,0.3,1.8s0.5,0.4,1.1,0.5v0.5h-6.5V150c0.5-0.1,0.8-0.3,1-0.6c0.1-0.2,0.2-0.8,0.2-1.7V142
			c0-1,0-1.7-0.1-2s-0.2-0.5-0.4-0.6c-0.2-0.2-0.4-0.2-0.6-0.2c-0.8,0-1.5,0.6-2.2,1.7v6.8c0,1,0.1,1.6,0.3,1.8s0.5,0.4,1,0.5v0.5
			h-6.5V150c0.5-0.1,0.9-0.2,1.1-0.5c0.2-0.2,0.2-0.8,0.2-1.8v-7.2c0-1-0.1-1.6-0.3-1.8s-0.5-0.4-1.1-0.5v-0.5H110.7z"/>
		<path class="st0" d="M143.6,131.5v6.5h-0.5c-0.6-1.8-1.5-3.1-2.7-4.1c-1.2-0.9-2.6-1.4-4-1.4c-1.4,0-2.5,0.4-3.5,1.2
			c-0.9,0.8-1.6,1.9-2,3.3s-0.6,2.8-0.6,4.3c0,1.8,0.2,3.3,0.6,4.7c0.4,1.3,1.1,2.3,2,3c0.9,0.6,2,0.9,3.3,0.9c0.4,0,0.9,0,1.4-0.1
			c0.5-0.1,1-0.2,1.4-0.4v-3.9c0-0.7-0.1-1.2-0.2-1.4c-0.1-0.2-0.3-0.4-0.6-0.6s-0.7-0.3-1.1-0.3h-0.5v-0.5h9v0.5
			c-0.7,0-1.2,0.1-1.4,0.3c-0.3,0.1-0.5,0.4-0.6,0.7c-0.1,0.2-0.1,0.6-0.1,1.3v3.9c-1.2,0.5-2.4,0.9-3.7,1.2c-1.3,0.3-2.6,0.4-4,0.4
			c-1.8,0-3.2-0.2-4.4-0.7s-2.2-1.1-3.1-1.9s-1.6-1.7-2.1-2.6c-0.6-1.3-1-2.7-1-4.2c0-2.8,1-5.1,2.9-7.1c2-1.9,4.4-2.9,7.4-2.9
			c0.9,0,1.8,0.1,2.5,0.2c0.4,0.1,1.1,0.3,1.9,0.6c0.9,0.3,1.4,0.5,1.6,0.5c0.3,0,0.5-0.1,0.7-0.3s0.4-0.5,0.6-1.1H143.6z"/>
		<path class="st0" d="M151.6,137.3c1.1,0,2.1,0.3,3.1,0.9s1.7,1.4,2.2,2.4c0.5,1.1,0.7,2.2,0.7,3.5c0,1.8-0.5,3.3-1.4,4.6
			c-1.1,1.5-2.6,2.2-4.6,2.2c-1.9,0-3.4-0.7-4.4-2s-1.6-2.9-1.6-4.7c0-1.8,0.5-3.4,1.6-4.8C148.3,138,149.8,137.3,151.6,137.3z
			 M151.7,138.3c-0.5,0-0.9,0.2-1.2,0.5c-0.3,0.4-0.6,1-0.7,2.1c-0.1,1-0.2,2.5-0.2,4.3c0,1,0.1,1.9,0.2,2.7
			c0.1,0.6,0.3,1.1,0.6,1.5s0.7,0.5,1.1,0.5c0.4,0,0.8-0.1,1-0.3c0.4-0.3,0.6-0.7,0.7-1.3c0.2-0.9,0.3-2.6,0.3-5.3
			c0-1.5-0.1-2.6-0.3-3.2c-0.2-0.6-0.4-1-0.8-1.3C152.4,138.4,152.1,138.3,151.7,138.3z"/>
		<path class="st0" d="M164,150.8l-4.3-9.9c-0.5-1.2-0.9-2-1.2-2.3c-0.2-0.2-0.5-0.4-0.9-0.5v-0.5h6.8v0.5c-0.4,0-0.7,0.1-0.9,0.2
			c-0.2,0.2-0.3,0.4-0.3,0.7c0,0.3,0.2,1,0.6,1.9l2.1,4.8l1.7-4.1c0.5-1.2,0.7-2,0.7-2.5c0-0.3-0.1-0.5-0.3-0.7s-0.6-0.3-1.1-0.3
			v-0.5h4.2v0.5c-0.4,0.1-0.7,0.2-1,0.5c-0.3,0.2-0.6,1-1.1,2.2l-4.3,10H164z"/>
		<path class="st0" d="M181.6,143.6h-7c0.1,1.7,0.5,3,1.4,4c0.6,0.8,1.4,1.1,2.3,1.1c0.5,0,1-0.2,1.5-0.5c0.4-0.3,0.9-0.9,1.4-1.6
			l0.5,0.3c-0.7,1.4-1.5,2.4-2.3,3c-0.8,0.6-1.8,0.9-2.9,0.9c-1.9,0-3.3-0.7-4.3-2.2c-0.8-1.2-1.2-2.6-1.2-4.4
			c0-2.1,0.6-3.8,1.7-5.1c1.2-1.3,2.5-1.9,4.1-1.9c1.3,0,2.4,0.5,3.4,1.6C181.1,140,181.6,141.5,181.6,143.6z M178.3,142.7
			c0-1.5-0.1-2.5-0.2-3c-0.2-0.5-0.4-1-0.7-1.2c-0.2-0.2-0.4-0.2-0.8-0.2c-0.5,0-0.9,0.2-1.2,0.7c-0.5,0.8-0.8,1.9-0.8,3.3v0.5
			H178.3z"/>
		<path class="st0" d="M187.1,137.7v2.9c0.8-1.3,1.6-2.2,2.2-2.6c0.6-0.4,1.3-0.6,1.8-0.6c0.5,0,0.9,0.2,1.2,0.5
			c0.3,0.3,0.5,0.8,0.5,1.3c0,0.6-0.1,1.1-0.4,1.4c-0.3,0.3-0.7,0.5-1.1,0.5c-0.5,0-0.9-0.2-1.3-0.5s-0.6-0.5-0.6-0.5
			c-0.1-0.1-0.2-0.1-0.3-0.1c-0.3,0-0.5,0.1-0.8,0.3c-0.4,0.3-0.7,0.8-0.8,1.3c-0.3,0.9-0.4,1.9-0.4,2.9v2.9l0,0.8
			c0,0.5,0,0.9,0.1,1c0.1,0.2,0.3,0.4,0.5,0.5c0.2,0.1,0.6,0.2,1.1,0.2v0.5h-6.9V150c0.6,0,0.9-0.2,1.1-0.5c0.2-0.3,0.3-0.9,0.3-2.1
			v-7.1c0-0.7,0-1.2-0.1-1.4c-0.1-0.3-0.2-0.4-0.4-0.6c-0.2-0.1-0.5-0.2-0.9-0.2v-0.5H187.1z"/>
		<path class="st0" d="M198.1,137.7v1.7c0.7-0.7,1.3-1.2,1.9-1.6s1.2-0.5,1.9-0.5c0.8,0,1.5,0.2,2.1,0.7s0.9,1,1.1,1.7
			c0.1,0.5,0.2,1.5,0.2,3v5c0,1,0.1,1.6,0.3,1.8s0.5,0.4,1.1,0.5v0.5h-6.5V150c0.5-0.1,0.8-0.3,1-0.6c0.1-0.2,0.2-0.8,0.2-1.7V142
			c0-1,0-1.7-0.1-2s-0.2-0.5-0.4-0.6c-0.2-0.2-0.4-0.2-0.6-0.2c-0.8,0-1.5,0.6-2.2,1.7v6.8c0,1,0.1,1.6,0.3,1.8s0.5,0.4,1,0.5v0.5
			h-6.5V150c0.5-0.1,0.9-0.2,1.1-0.5c0.2-0.2,0.2-0.8,0.2-1.8v-7.2c0-1-0.1-1.6-0.3-1.8s-0.5-0.4-1.1-0.5v-0.5H198.1z"/>
		<path class="st0" d="M212.3,137.7v1.7c0.7-0.8,1.4-1.3,1.9-1.6c0.6-0.3,1.3-0.5,2-0.5c0.8,0,1.5,0.2,2.1,0.6c0.6,0.4,1,1,1.3,1.8
			c0.7-0.8,1.4-1.4,2.1-1.8s1.4-0.5,2.1-0.5c0.9,0,1.6,0.2,2.1,0.6c0.5,0.4,0.9,0.9,1.1,1.5s0.3,1.6,0.3,3v5.2c0,1,0.1,1.6,0.3,1.8
			s0.5,0.4,1.1,0.5v0.5h-6.6V150c0.5,0,0.9-0.2,1.1-0.6c0.2-0.2,0.2-0.8,0.2-1.7v-5.5c0-1.1,0-1.9-0.1-2.2c-0.1-0.3-0.2-0.5-0.4-0.7
			c-0.2-0.2-0.4-0.2-0.7-0.2c-0.4,0-0.8,0.1-1.2,0.4c-0.4,0.3-0.8,0.7-1.2,1.3v6.9c0,0.9,0.1,1.5,0.2,1.7c0.2,0.3,0.6,0.5,1.2,0.6
			v0.5h-6.6V150c0.4,0,0.6-0.1,0.8-0.3s0.3-0.4,0.4-0.6s0.1-0.7,0.1-1.5v-5.5c0-1.2,0-1.9-0.1-2.2c-0.1-0.3-0.2-0.5-0.5-0.7
			c-0.2-0.2-0.4-0.2-0.7-0.2c-0.4,0-0.7,0.1-1,0.3c-0.4,0.3-0.9,0.8-1.4,1.4v6.9c0,0.9,0.1,1.5,0.3,1.8s0.5,0.5,1.1,0.5v0.5h-6.6
			V150c0.5-0.1,0.9-0.2,1.1-0.5c0.2-0.2,0.2-0.8,0.2-1.8v-7.2c0-1-0.1-1.6-0.3-1.8s-0.5-0.4-1.1-0.5v-0.5H212.3z"/>
		<path class="st0" d="M239.8,143.6h-7c0.1,1.7,0.5,3,1.4,4c0.6,0.8,1.4,1.1,2.3,1.1c0.5,0,1-0.2,1.5-0.5c0.4-0.3,0.9-0.9,1.4-1.6
			l0.5,0.3c-0.7,1.4-1.5,2.4-2.3,3c-0.8,0.6-1.8,0.9-2.9,0.9c-1.9,0-3.3-0.7-4.3-2.2c-0.8-1.2-1.2-2.6-1.2-4.4
			c0-2.1,0.6-3.8,1.7-5.1c1.2-1.3,2.5-1.9,4.1-1.9c1.3,0,2.4,0.5,3.4,1.6C239.2,140,239.7,141.5,239.8,143.6z M236.4,142.7
			c0-1.5-0.1-2.5-0.2-3c-0.2-0.5-0.4-1-0.7-1.2c-0.2-0.2-0.4-0.2-0.8-0.2c-0.5,0-0.9,0.2-1.2,0.7c-0.5,0.8-0.8,1.9-0.8,3.3v0.5
			H236.4z"/>
		<path class="st0" d="M245.2,137.7v1.7c0.7-0.7,1.3-1.2,1.9-1.6s1.2-0.5,1.9-0.5c0.8,0,1.5,0.2,2.1,0.7s0.9,1,1.1,1.7
			c0.1,0.5,0.2,1.5,0.2,3v5c0,1,0.1,1.6,0.3,1.8s0.5,0.4,1.1,0.5v0.5h-6.5V150c0.5-0.1,0.8-0.3,1-0.6c0.1-0.2,0.2-0.8,0.2-1.7V142
			c0-1,0-1.7-0.1-2s-0.2-0.5-0.4-0.6c-0.2-0.2-0.4-0.2-0.6-0.2c-0.8,0-1.5,0.6-2.2,1.7v6.8c0,1,0.1,1.6,0.3,1.8s0.5,0.4,1,0.5v0.5
			H240V150c0.5-0.1,0.9-0.2,1.1-0.5c0.2-0.2,0.2-0.8,0.2-1.8v-7.2c0-1-0.1-1.6-0.3-1.8s-0.5-0.4-1.1-0.5v-0.5H245.2z"/>
		<path class="st0" d="M259.2,133v4.7h3v1.4h-3v7.9c0,0.7,0,1.2,0.1,1.4s0.2,0.4,0.4,0.5c0.2,0.1,0.3,0.2,0.5,0.2
			c0.6,0,1.2-0.5,1.7-1.4l0.4,0.3c-0.7,1.8-1.9,2.6-3.6,2.6c-0.8,0-1.5-0.2-2.1-0.7s-0.9-1-1.1-1.5c-0.1-0.3-0.1-1.1-0.1-2.5V139
			h-1.7v-0.5c1.1-0.8,2.1-1.7,2.9-2.6s1.5-1.9,2.1-3H259.2z"/>
	</g>
</g>
</svg>
