<?xml version="1.0" encoding="utf-8"?>
<!-- Generator: Adobe Illustrator 19.1.0, SVG Export Plug-In . SVG Version: 6.00 Build 0)  -->
<svg version="1.1" id="WATER_x0D_RATING" xmlns="http://www.w3.org/2000/svg" xmlns:xlink="http://www.w3.org/1999/xlink" x="0px"
	 y="0px" viewBox="-231 386.9 132 68" style="enable-background:new -231 386.9 132 68;" xml:space="preserve">
<style type="text/css">
	.st0{fill:#1D1D1B;}
</style>
<g>
	<path class="st0" d="M-196.7,417.1c-0.1,0.2-0.1,0.4-0.3,0.5c-0.1,0.1-0.3,0.2-0.5,0.3c-0.2,0.1-0.4,0.1-0.7,0.1s-0.7,0-1.1,0
		c-0.4,0-0.8,0-1.1,0c-0.3,0-0.6-0.1-0.8-0.1c-0.2-0.1-0.4-0.2-0.5-0.3c-0.1-0.1-0.2-0.3-0.2-0.5l-5.8-21l0,0l-5.4,21
		c0,0.2-0.1,0.4-0.2,0.5c-0.1,0.1-0.2,0.2-0.4,0.3c-0.2,0.1-0.4,0.1-0.7,0.1c-0.3,0-0.7,0-1.1,0c-0.5,0-0.9,0-1.2,0
		s-0.6-0.1-0.8-0.1c-0.2-0.1-0.4-0.2-0.5-0.3s-0.2-0.3-0.2-0.5l-7.3-25.7c-0.1-0.3-0.2-0.6-0.2-0.8c0-0.2,0-0.3,0.2-0.4
		c0.1-0.1,0.3-0.2,0.6-0.2c0.3,0,0.6,0,1.1,0c0.4,0,0.8,0,1.1,0s0.5,0.1,0.6,0.1c0.1,0.1,0.2,0.2,0.2,0.3c0,0.1,0.1,0.2,0.1,0.4
		l6.3,23.3l0,0l5.9-23.2c0-0.2,0.1-0.3,0.2-0.4c0.1-0.1,0.2-0.2,0.3-0.2c0.1-0.1,0.3-0.1,0.6-0.1s0.6,0,1,0s0.7,0,1,0
		c0.2,0,0.4,0.1,0.6,0.1c0.1,0.1,0.2,0.1,0.3,0.2c0.1,0.1,0.1,0.2,0.2,0.4l6.4,23.2l0,0l6.1-23.3c0-0.1,0.1-0.3,0.1-0.4
		c0-0.1,0.1-0.2,0.3-0.2c0.1-0.1,0.3-0.1,0.6-0.1c0.3,0,0.6,0,1,0c0.4,0,0.8,0,1,0.1c0.3,0,0.4,0.1,0.5,0.2c0.1,0.1,0.2,0.2,0.2,0.4
		c0,0.2,0,0.4-0.1,0.8L-196.7,417.1z"/>
	<path class="st0" d="M-165.3,416.6c0.1,0.3,0.2,0.6,0.2,0.8c0,0.2,0,0.3-0.2,0.4c-0.1,0.1-0.3,0.2-0.6,0.2c-0.3,0-0.6,0-1.1,0
		c-0.4,0-0.8,0-1.1,0c-0.3,0-0.5-0.1-0.6-0.1s-0.2-0.1-0.3-0.2c-0.1-0.1-0.1-0.2-0.2-0.3l-2.4-6.8H-183l-2.3,6.7
		c0,0.1-0.1,0.2-0.2,0.3s-0.2,0.2-0.3,0.2c-0.1,0.1-0.3,0.1-0.6,0.1c-0.3,0-0.6,0-1,0c-0.4,0-0.8,0-1-0.1c-0.3,0-0.5-0.1-0.6-0.2
		c-0.1-0.1-0.2-0.2-0.2-0.4s0.1-0.4,0.2-0.8l9.3-25.8c0.1-0.2,0.1-0.3,0.2-0.4s0.2-0.2,0.4-0.2c0.2-0.1,0.4-0.1,0.7-0.1s0.6,0,1.1,0
		s0.8,0,1.1,0s0.5,0.1,0.7,0.1c0.2,0.1,0.3,0.1,0.4,0.2c0.1,0.1,0.2,0.2,0.2,0.4L-165.3,416.6z M-177.3,393.8L-177.3,393.8
		l-4.8,13.9h9.7L-177.3,393.8z"/>
	<path class="st0" d="M-146.7,391.7c0,0.3,0,0.5,0,0.7c0,0.2-0.1,0.4-0.1,0.5c-0.2,0.1-0.2,0.2-0.3,0.3c-0.1,0.1-0.2,0.1-0.3,0.1
		h-7.8v24.1c0,0.1,0,0.2-0.1,0.3s-0.2,0.2-0.3,0.2c-0.2,0-0.4,0-0.6,0.1c-0.2,0-0.5,0.1-0.9,0.1c-0.3,0-0.6,0-0.9-0.1
		c-0.2,0-0.4-0.1-0.6-0.1c-0.1,0-0.2-0.1-0.3-0.2s-0.1-0.2-0.1-0.3v-24.2h-7.8c-0.1,0-0.2,0-0.3-0.1c-0.1-0.1-0.2-0.1-0.2-0.3
		c-0.1-0.1-0.1-0.3-0.1-0.5c0-0.2-0.1-0.4-0.1-0.7c0-0.3,0-0.5,0.1-0.7c0-0.2,0.1-0.4,0.1-0.5c0.1-0.1,0.1-0.2,0.2-0.3
		s0.2-0.1,0.3-0.1h19.3c0.1,0,0.2,0,0.3,0.1c0.2,0.1,0.2,0.2,0.3,0.4c0.1,0.2,0.1,0.3,0.1,0.5C-146.7,391.2-146.7,391.4-146.7,391.7
		z"/>
	<path class="st0" d="M-127.2,416.4c0,0.3,0,0.5,0,0.7c0,0.2-0.1,0.4-0.2,0.5s-0.2,0.2-0.2,0.3c-0.1,0.1-0.2,0.1-0.3,0.1h-13.4
		c-0.3,0-0.6-0.1-0.9-0.3c-0.3-0.2-0.4-0.6-0.4-1.2v-24.9c0-0.6,0.1-0.9,0.4-1.2c0.3-0.2,0.6-0.3,0.9-0.3h13.2c0.1,0,0.2,0,0.3,0.1
		c0.1,0.1,0.2,0.2,0.2,0.3c0.1,0.1,0.1,0.3,0.1,0.5c0,0.2,0.1,0.4,0.1,0.7s0,0.5-0.1,0.7c0,0.2-0.1,0.4-0.1,0.5
		c-0.1,0.1-0.1,0.2-0.2,0.3s-0.2,0.1-0.3,0.1H-139v8.6h9.3c0.1,0,0.2,0,0.3,0.1c0.1,0.1,0.2,0.2,0.2,0.3c0.1,0.1,0.1,0.3,0.1,0.5
		c0,0.2,0,0.4,0,0.7c0,0.3,0,0.5,0,0.7s-0.1,0.3-0.1,0.5c-0.1,0.1-0.1,0.2-0.2,0.2c-0.1,0.1-0.2,0.1-0.3,0.1h-9.3v9.9h11
		c0.1,0,0.2,0,0.3,0.1c0.1,0.1,0.2,0.1,0.2,0.3c0.1,0.1,0.1,0.3,0.2,0.5C-127.2,415.8-127.2,416.1-127.2,416.4z"/>
	<path class="st0" d="M-102.7,417.3c0,0.1,0,0.2-0.1,0.3s-0.1,0.2-0.3,0.2c-0.1,0.1-0.3,0.1-0.6,0.1c-0.3,0-0.6,0-1,0s-0.7,0-0.9,0
		c-0.2,0-0.4-0.1-0.6-0.1c-0.1-0.1-0.3-0.2-0.3-0.3c-0.1-0.1-0.1-0.3-0.2-0.4l-2.6-6.6c-0.3-0.7-0.6-1.4-0.9-2.1
		c-0.3-0.7-0.7-1.2-1.1-1.6c-0.4-0.5-1-0.8-1.6-1.1s-1.3-0.4-2.2-0.4h-2.5v11.8c0,0.1,0,0.2-0.1,0.3c-0.1,0.1-0.2,0.2-0.3,0.2
		c-0.1,0.1-0.3,0.1-0.6,0.1c-0.2,0-0.5,0.1-0.9,0.1s-0.7,0-0.9-0.1c-0.2,0-0.4-0.1-0.6-0.1c-0.1,0-0.2-0.1-0.3-0.2
		c-0.1-0.1-0.1-0.2-0.1-0.3v-25.5c0-0.6,0.1-0.9,0.4-1.2c0.3-0.2,0.6-0.3,0.9-0.3h5.9c0.7,0,1.3,0,1.8,0.1c0.5,0,0.9,0.1,1.3,0.1
		c1.1,0.2,2,0.5,2.8,0.9s1.5,0.9,2.1,1.5s1,1.3,1.3,2.1c0.3,0.8,0.4,1.7,0.4,2.6c0,0.9-0.1,1.8-0.4,2.5c-0.3,0.7-0.6,1.4-1.1,2
		c-0.5,0.6-1,1.1-1.7,1.5c-0.7,0.4-1.4,0.8-2.2,1.1c0.5,0.2,0.9,0.5,1.2,0.8c0.4,0.3,0.7,0.7,1,1.1c0.3,0.4,0.6,0.9,0.9,1.5
		c0.3,0.6,0.6,1.2,0.9,1.9l2.5,6.1c0.2,0.5,0.3,0.9,0.4,1.1C-102.7,417.1-102.7,417.2-102.7,417.3z M-108.2,397.8
		c0-1.1-0.2-2-0.7-2.8c-0.5-0.8-1.3-1.3-2.4-1.6c-0.4-0.1-0.8-0.2-1.2-0.2s-1-0.1-1.8-0.1h-3.1v9.4h3.6c1,0,1.8-0.1,2.5-0.4
		s1.3-0.6,1.8-1s0.8-0.9,1-1.5C-108.3,399.1-108.2,398.5-108.2,397.8z"/>
	<path class="st0" d="M-206.3,450.4c0,0.1,0,0.2-0.1,0.3c-0.1,0.1-0.1,0.1-0.3,0.2c-0.1,0.1-0.3,0.1-0.6,0.1c-0.2,0-0.6,0-1,0
		c-0.3,0-0.6,0-0.9,0c-0.2,0-0.4-0.1-0.5-0.1c-0.1-0.1-0.2-0.1-0.3-0.3c-0.1-0.1-0.1-0.2-0.2-0.4l-2.4-6.1c-0.3-0.7-0.6-1.3-0.9-1.9
		s-0.7-1.1-1.1-1.5c-0.4-0.4-0.9-0.7-1.5-1c-0.6-0.2-1.2-0.3-2-0.3h-2.3v11c0,0.1,0,0.2-0.1,0.3s-0.2,0.1-0.3,0.2
		c-0.1,0-0.3,0.1-0.5,0.1s-0.5,0-0.8,0c-0.3,0-0.6,0-0.8,0c0-0.1-0.2-0.1-0.3-0.1c-0.1,0-0.2-0.1-0.3-0.2s-0.1-0.2-0.1-0.3v-24
		c0-0.5,0.1-0.9,0.4-1.1c0.3-0.2,0.6-0.3,0.9-0.3h5.5c0.7,0,1.2,0,1.6,0c0.4,0,0.8,0.1,1.2,0.1c1,0.2,1.9,0.4,2.7,0.8
		c0.8,0.4,1.4,0.8,1.9,1.4s0.9,1.2,1.2,2c0.3,0.7,0.4,1.6,0.4,2.5s-0.1,1.6-0.4,2.3c-0.3,0.7-0.6,1.3-1,1.8c-0.4,0.5-1,1-1.6,1.4
		c-0.6,0.4-1.3,0.7-2.1,1c0.4,0.2,0.8,0.4,1.2,0.7c0.3,0.3,0.7,0.6,1,1c0.3,0.4,0.6,0.9,0.9,1.4s0.5,1.1,0.8,1.8l2.3,5.7
		c0.2,0.5,0.3,0.8,0.4,1C-206.3,450.1-206.3,450.3-206.3,450.4z M-211.5,432.2c0-1-0.2-1.9-0.7-2.6c-0.5-0.7-1.2-1.2-2.3-1.5
		c-0.3-0.1-0.7-0.2-1.1-0.2c-0.4,0-1-0.1-1.7-0.1h-2.9v8.7h3.4c0.9,0,1.7-0.1,2.4-0.3c0.7-0.2,1.2-0.5,1.7-0.9s0.8-0.9,1-1.4
		C-211.6,433.4-211.5,432.8-211.5,432.2z"/>
	<path class="st0" d="M-181.9,449.7c0.1,0.3,0.2,0.5,0.2,0.7c0,0.2,0,0.3-0.2,0.4c-0.1,0.1-0.3,0.2-0.5,0.2c-0.2,0-0.6,0-1,0
		c-0.4,0-0.7,0-1,0c-0.2,0-0.4-0.1-0.6-0.1c-0.1,0-0.2-0.1-0.3-0.2c-0.1-0.1-0.1-0.2-0.2-0.3l-2.2-6.3h-10.7l-2.1,6.2
		c0,0.1-0.1,0.2-0.2,0.3c-0.1,0.1-0.2,0.2-0.3,0.2c-0.1,0.1-0.3,0.1-0.5,0.1s-0.5,0-0.9,0c-0.4,0-0.7,0-1,0c-0.2,0-0.4-0.1-0.5-0.2
		c-0.1,0-0.1-0.2-0.1-0.3c0-0.2,0.1-0.4,0.2-0.7l8.7-24.1c0.1-0.1,0.1-0.3,0.2-0.4c0.1-0.1,0.2-0.2,0.4-0.2c0.2-0.1,0.4-0.1,0.6-0.1
		c0.3,0,0.6,0,1,0c0.4,0,0.8,0,1.1,0s0.5,0.1,0.7,0.1c0.2,0.1,0.3,0.1,0.4,0.2c0.1,0.1,0.2,0.2,0.2,0.4L-181.9,449.7z M-193,428.4
		L-193,428.4l-4.5,12.9h9L-193,428.4z"/>
	<path class="st0" d="M-164.5,426.5c0,0.3,0,0.5,0,0.7s-0.1,0.3-0.1,0.5c-0.1,0.1-0.1,0.2-0.2,0.3c-0.2-0.1-0.3-0.1-0.4-0.1h-7.3
		v22.5c0,0.1,0,0.2-0.1,0.3c-0.1,0.1-0.1,0.1-0.3,0.2c-0.1,0-0.3,0.1-0.5,0.1s-0.5,0-0.8,0s-0.6,0-0.8,0c-0.2,0-0.4-0.1-0.5-0.1
		c-0.1,0-0.2-0.1-0.3-0.2c-0.1-0.1-0.1-0.2-0.1-0.3v-22.5h-7.3c-0.1,0-0.2,0-0.3-0.1c-0.1-0.1-0.2-0.1-0.2-0.3
		c-0.1-0.1-0.1-0.3-0.1-0.5c0-0.2,0-0.4,0-0.7c0-0.3,0-0.5,0-0.7c0-0.2,0.1-0.4,0.1-0.5c0.1-0.1,0.1-0.2,0.2-0.3
		c0.1-0.1,0.2-0.1,0.3-0.1h18c0.1,0,0.2,0,0.3,0.1s0.2,0.1,0.2,0.3c0.1,0.1,0.1,0.3,0.1,0.5C-164.6,426-164.5,426.2-164.5,426.5z"/>
	<path class="st0" d="M-157.4,450.4c0,0.1,0,0.2-0.1,0.3s-0.1,0.1-0.3,0.2c-0.1,0-0.3,0.1-0.5,0.1s-0.5,0-0.8,0s-0.6,0-0.8,0
		s-0.4-0.1-0.5-0.1s-0.2-0.1-0.3-0.2s-0.1-0.2-0.1-0.3v-24.9c0-0.1,0-0.2,0.1-0.3s0.2-0.1,0.3-0.2c0.1,0,0.3-0.1,0.5-0.1
		s0.5,0,0.8,0s0.6,0,0.8,0s0.4,0.1,0.5,0.1s0.2,0.1,0.3,0.2s0.1,0.2,0.1,0.3V450.4z"/>
	<path class="st0" d="M-130.9,449.5c0,0.3,0,0.5-0.1,0.7s-0.2,0.3-0.4,0.5c-0.1,0.1-0.3,0.2-0.5,0.3c-0.2,0.1-0.4,0.1-0.5,0.1h-1.1
		c-0.4,0-0.7,0-0.9-0.1c-0.2-0.1-0.5-0.2-0.8-0.4c-0.2-0.2-0.5-0.5-0.7-0.8c-0.2-0.3-0.5-0.8-0.8-1.3l-7.9-14.7
		c-0.4-0.8-0.8-1.6-1.3-2.4c-0.4-0.8-0.8-1.6-1.2-2.4l0,0c0,1,0,1.9,0.1,2.9c0,1,0,2,0,3v15.6c0,0.1,0,0.2-0.1,0.3
		c-0.1,0.1-0.2,0.2-0.3,0.2s-0.3,0.1-0.5,0.1s-0.5,0-0.8,0s-0.6,0-0.8,0c-0.3-0.2-0.5-0.2-0.6-0.2c-0.1,0-0.2-0.1-0.3-0.2
		s-0.1-0.2-0.1-0.3v-23.9c0-0.5,0.2-0.9,0.5-1.1c0.3-0.2,0.6-0.3,1-0.3h1.7c0.4,0,0.7,0,1,0.1s0.5,0.2,0.7,0.3
		c0.2,0.2,0.4,0.4,0.6,0.6c0.2,0.2,0.4,0.6,0.6,1l6.1,11.4c0.4,0.7,0.7,1.4,1.1,2c0.3,0.7,0.7,1.3,1,2c0.3,0.7,0.6,1.3,1,1.9
		c0.3,0.6,0.6,1.2,0.9,1.9l0,0c0-1.1,0-2.2,0-3.3c0-1.1,0-2.2,0-3.3v-14.1c0-0.1,0-0.2,0.1-0.3s0.2-0.2,0.3-0.2
		c0.1-0.1,0.3-0.1,0.5-0.1s0.5,0,0.9,0c0.3,0,0.6,0,0.8,0c0.2,0,0.4,0.1,0.5,0.1c0.1,0.1,0.2,0.1,0.3,0.2s0.1,0.2,0.1,0.3
		L-130.9,449.5L-130.9,449.5z"/>
	<path class="st0" d="M-104.5,428.5c0,0.3,0,0.5,0,0.7s-0.1,0.4-0.1,0.5c-0.1,0.1-0.1,0.2-0.2,0.3c-0.1,0.1-0.2,0.1-0.3,0.1
		c-0.2,0-0.4-0.1-0.8-0.4c-0.4-0.3-0.9-0.5-1.5-0.8c-0.6-0.3-1.4-0.6-2.3-0.8c-0.9-0.3-1.9-0.4-3.1-0.4c-1.4,0-2.7,0.3-3.8,0.8
		c-1.1,0.5-2.1,1.2-2.9,2.2c-0.8,0.9-1.4,2-1.8,3.3c-0.4,1.3-0.6,2.6-0.6,4.1c0,1.7,0.2,3.1,0.7,4.4c0.5,1.3,1.1,2.4,1.9,3.2
		c0.8,0.9,1.8,1.5,2.9,2s2.4,0.7,3.7,0.7c0.8,0,1.6-0.1,2.4-0.3s1.6-0.5,2.3-0.9v-7.5h-6c-0.2,0-0.4-0.1-0.5-0.3
		c-0.1-0.2-0.2-0.6-0.2-1.1c0-0.3,0-0.5,0-0.7s0.1-0.3,0.1-0.4c0.1-0.1,0.1-0.2,0.2-0.3c0.1-0.1,0.2-0.1,0.3-0.1h8.2
		c0.1,0,0.3,0,0.4,0.1c0.1,0.1,0.3,0.1,0.4,0.2s0.2,0.3,0.3,0.4c0.1,0.2,0.1,0.4,0.1,0.6v9.9c0,0.3-0.1,0.6-0.2,0.9
		c-0.1,0.3-0.4,0.5-0.8,0.7c-0.4,0.2-0.9,0.4-1.5,0.6s-1.2,0.4-1.9,0.6c-0.7,0.2-1.3,0.3-2,0.4s-1.3,0.1-2,0.1c-2,0-3.8-0.3-5.4-0.9
		c-1.6-0.6-2.9-1.5-4-2.7c-1.1-1.1-1.9-2.5-2.5-4.1s-0.9-3.4-0.9-5.4c0-2.1,0.3-3.9,0.9-5.6c0.6-1.7,1.5-3.1,2.6-4.3
		c1.1-1.2,2.5-2.1,4.1-2.7s3.3-1,5.3-1c1,0,1.9,0.1,2.8,0.3c0.9,0.2,1.6,0.4,2.3,0.6c0.7,0.2,1.2,0.5,1.7,0.8c0.5,0.3,0.8,0.5,1,0.7
		s0.3,0.4,0.4,0.6C-104.6,427.8-104.5,428.1-104.5,428.5z"/>
</g>
</svg>
