<?xml version="1.0" encoding="utf-8"?>
<!-- Generator: Adobe Illustrator 19.1.0, SVG Export Plug-In . SVG Version: 6.00 Build 0)  -->
<svg version="1.1" id="WATER_x0D_RATING" xmlns="http://www.w3.org/2000/svg" xmlns:xlink="http://www.w3.org/1999/xlink" x="0px"
	 y="0px" viewBox="0 0 132 68" style="enable-background:new 0 0 132 68;" xml:space="preserve">
<style type="text/css">
	.st0{fill:#FFFFFF;}
</style>
<g>
	<path class="st0" d="M34.3,30.2c-0.1,0.2-0.1,0.4-0.3,0.5c-0.1,0.1-0.3,0.2-0.5,0.3c-0.2,0.1-0.4,0.1-0.7,0.1c-0.3,0-0.7,0-1.1,0
		c-0.4,0-0.8,0-1.1,0c-0.3,0-0.6-0.1-0.8-0.1c-0.2-0.1-0.4-0.2-0.5-0.3c-0.1-0.1-0.2-0.3-0.2-0.5l-5.8-21h0l-5.4,21
		c0,0.2-0.1,0.4-0.2,0.5c-0.1,0.1-0.2,0.2-0.4,0.3c-0.2,0.1-0.4,0.1-0.7,0.1c-0.3,0-0.7,0-1.1,0c-0.5,0-0.9,0-1.2,0
		c-0.3,0-0.6-0.1-0.8-0.1c-0.2-0.1-0.4-0.2-0.5-0.3c-0.1-0.1-0.2-0.3-0.2-0.5L5.5,4.5C5.4,4.2,5.3,3.9,5.3,3.7c0-0.2,0-0.3,0.2-0.4
		c0.1-0.1,0.3-0.2,0.6-0.2c0.3,0,0.6,0,1.1,0c0.4,0,0.8,0,1.1,0s0.5,0.1,0.6,0.1C9,3.3,9.1,3.4,9.1,3.5c0,0.1,0.1,0.2,0.1,0.4
		l6.3,23.3h0l5.9-23.2c0-0.2,0.1-0.3,0.2-0.4s0.2-0.2,0.3-0.2c0.1-0.1,0.3-0.1,0.6-0.1c0.3,0,0.6,0,1,0c0.4,0,0.7,0,1,0
		c0.2,0,0.4,0.1,0.6,0.1c0.1,0.1,0.2,0.1,0.3,0.2s0.1,0.2,0.2,0.4l6.4,23.2h0l6.1-23.3c0-0.1,0.1-0.3,0.1-0.4s0.1-0.2,0.3-0.2
		c0.1-0.1,0.3-0.1,0.6-0.1c0.3,0,0.6,0,1,0c0.4,0,0.8,0,1,0.1c0.3,0,0.4,0.1,0.5,0.2c0.1,0.1,0.2,0.2,0.2,0.4c0,0.2,0,0.4-0.1,0.8
		L34.3,30.2z"/>
	<path class="st0" d="M65.7,29.7c0.1,0.3,0.2,0.6,0.2,0.8c0,0.2,0,0.3-0.2,0.4c-0.1,0.1-0.3,0.2-0.6,0.2c-0.3,0-0.6,0-1.1,0
		c-0.4,0-0.8,0-1.1,0c-0.3,0-0.5-0.1-0.6-0.1c-0.1,0-0.2-0.1-0.3-0.2s-0.1-0.2-0.2-0.3l-2.4-6.8H48l-2.3,6.7c0,0.1-0.1,0.2-0.2,0.3
		c-0.1,0.1-0.2,0.2-0.3,0.2c-0.1,0.1-0.3,0.1-0.6,0.1c-0.3,0-0.6,0-1,0c-0.4,0-0.8,0-1-0.1c-0.3,0-0.5-0.1-0.6-0.2
		c-0.1-0.1-0.2-0.2-0.2-0.4c0-0.2,0.1-0.4,0.2-0.8l9.3-25.8c0.1-0.2,0.1-0.3,0.2-0.4c0.1-0.1,0.2-0.2,0.4-0.2
		c0.2-0.1,0.4-0.1,0.7-0.1s0.6,0,1.1,0c0.5,0,0.8,0,1.1,0s0.5,0.1,0.7,0.1c0.2,0.1,0.3,0.1,0.4,0.2c0.1,0.1,0.2,0.2,0.2,0.4
		L65.7,29.7z M53.7,6.9L53.7,6.9l-4.8,13.9h9.7L53.7,6.9z"/>
	<path class="st0" d="M84.3,4.8c0,0.3,0,0.5,0,0.7c0,0.2-0.1,0.4-0.1,0.5C84,6.1,84,6.2,83.9,6.3c-0.1,0.1-0.2,0.1-0.3,0.1h-7.8
		v24.1c0,0.1,0,0.2-0.1,0.3c-0.1,0.1-0.2,0.2-0.3,0.2C75.2,31,75,31,74.8,31.1c-0.2,0-0.5,0.1-0.9,0.1c-0.3,0-0.6,0-0.9-0.1
		c-0.2,0-0.4-0.1-0.6-0.1c-0.1,0-0.2-0.1-0.3-0.2c-0.1-0.1-0.1-0.2-0.1-0.3V6.3h-7.8c-0.1,0-0.2,0-0.3-0.1c-0.1-0.1-0.2-0.1-0.2-0.3
		c-0.1-0.1-0.1-0.3-0.1-0.5c0-0.2-0.1-0.4-0.1-0.7c0-0.3,0-0.5,0.1-0.7c0-0.2,0.1-0.4,0.1-0.5c0.1-0.1,0.1-0.2,0.2-0.3
		c0.1-0.1,0.2-0.1,0.3-0.1h19.3c0.1,0,0.2,0,0.3,0.1C84,3.3,84,3.4,84.1,3.6s0.1,0.3,0.1,0.5C84.3,4.3,84.3,4.5,84.3,4.8z"/>
	<path class="st0" d="M103.8,29.5c0,0.3,0,0.5,0,0.7c0,0.2-0.1,0.4-0.2,0.5c-0.1,0.1-0.2,0.2-0.2,0.3c-0.1,0.1-0.2,0.1-0.3,0.1H89.7
		c-0.3,0-0.6-0.1-0.9-0.3c-0.3-0.2-0.4-0.6-0.4-1.2V4.7c0-0.6,0.1-0.9,0.4-1.2c0.3-0.2,0.6-0.3,0.9-0.3h13.2c0.1,0,0.2,0,0.3,0.1
		c0.1,0.1,0.2,0.2,0.2,0.3c0.1,0.1,0.1,0.3,0.1,0.5c0,0.2,0.1,0.4,0.1,0.7c0,0.3,0,0.5-0.1,0.7c0,0.2-0.1,0.4-0.1,0.5
		c-0.1,0.1-0.1,0.2-0.2,0.3c-0.1,0.1-0.2,0.1-0.3,0.1H92V15h9.3c0.1,0,0.2,0,0.3,0.1c0.1,0.1,0.2,0.2,0.2,0.3
		c0.1,0.1,0.1,0.3,0.1,0.5c0,0.2,0,0.4,0,0.7c0,0.3,0,0.5,0,0.7c0,0.2-0.1,0.3-0.1,0.5c-0.1,0.1-0.1,0.2-0.2,0.2
		c-0.1,0.1-0.2,0.1-0.3,0.1H92v9.9h11c0.1,0,0.2,0,0.3,0.1c0.1,0.1,0.2,0.1,0.2,0.3c0.1,0.1,0.1,0.3,0.2,0.5
		C103.8,28.9,103.8,29.2,103.8,29.5z"/>
	<path class="st0" d="M128.3,30.4c0,0.1,0,0.2-0.1,0.3s-0.1,0.2-0.3,0.2c-0.1,0.1-0.3,0.1-0.6,0.1c-0.3,0-0.6,0-1,0
		c-0.4,0-0.7,0-0.9,0c-0.2,0-0.4-0.1-0.6-0.1c-0.1-0.1-0.3-0.2-0.3-0.3c-0.1-0.1-0.1-0.3-0.2-0.4l-2.6-6.6c-0.3-0.7-0.6-1.4-0.9-2.1
		s-0.7-1.2-1.1-1.6c-0.4-0.5-1-0.8-1.6-1.1c-0.6-0.3-1.3-0.4-2.2-0.4h-2.5v11.8c0,0.1,0,0.2-0.1,0.3s-0.2,0.2-0.3,0.2
		c-0.1,0.1-0.3,0.1-0.6,0.1c-0.2,0-0.5,0.1-0.9,0.1c-0.4,0-0.7,0-0.9-0.1c-0.2,0-0.4-0.1-0.6-0.1c-0.1,0-0.2-0.1-0.3-0.2
		c-0.1-0.1-0.1-0.2-0.1-0.3V4.7c0-0.6,0.1-0.9,0.4-1.2c0.3-0.2,0.6-0.3,0.9-0.3h5.9c0.7,0,1.3,0,1.8,0.1c0.5,0,0.9,0.1,1.3,0.1
		c1.1,0.2,2,0.5,2.8,0.9c0.8,0.4,1.5,0.9,2.1,1.5c0.6,0.6,1,1.3,1.3,2.1s0.4,1.7,0.4,2.6c0,0.9-0.1,1.8-0.4,2.5
		c-0.3,0.7-0.6,1.4-1.1,2c-0.5,0.6-1,1.1-1.7,1.5c-0.7,0.4-1.4,0.8-2.2,1.1c0.5,0.2,0.9,0.5,1.2,0.8c0.4,0.3,0.7,0.7,1,1.1
		s0.6,0.9,0.9,1.5c0.3,0.6,0.6,1.2,0.9,1.9l2.5,6.1c0.2,0.5,0.3,0.9,0.4,1.1C128.3,30.2,128.3,30.3,128.3,30.4z M122.8,10.9
		c0-1.1-0.2-2-0.7-2.8c-0.5-0.8-1.3-1.3-2.4-1.6c-0.4-0.1-0.8-0.2-1.2-0.2s-1-0.1-1.8-0.1h-3.1v9.4h3.6c1,0,1.8-0.1,2.5-0.4
		s1.3-0.6,1.8-1c0.5-0.4,0.8-0.9,1-1.5C122.7,12.2,122.8,11.6,122.8,10.9z"/>
	<path class="st0" d="M24.7,63.5c0,0.1,0,0.2-0.1,0.3s-0.1,0.1-0.3,0.2c-0.1,0.1-0.3,0.1-0.6,0.1c-0.2,0-0.6,0-1,0
		c-0.3,0-0.6,0-0.9,0c-0.2,0-0.4-0.1-0.5-0.1c-0.1-0.1-0.2-0.1-0.3-0.3c-0.1-0.1-0.1-0.2-0.2-0.4l-2.4-6.1c-0.3-0.7-0.6-1.3-0.9-1.9
		c-0.3-0.6-0.7-1.1-1.1-1.5c-0.4-0.4-0.9-0.7-1.5-1c-0.6-0.2-1.2-0.3-2-0.3h-2.3v11c0,0.1,0,0.2-0.1,0.3c-0.1,0.1-0.2,0.1-0.3,0.2
		c-0.1,0-0.3,0.1-0.5,0.1c-0.2,0-0.5,0-0.8,0c-0.3,0-0.6,0-0.8,0C8.1,64,7.9,64,7.8,64c-0.1,0-0.2-0.1-0.3-0.2
		c-0.1-0.1-0.1-0.2-0.1-0.3v-24c0-0.5,0.1-0.9,0.4-1.1s0.6-0.3,0.9-0.3h5.5c0.7,0,1.2,0,1.6,0c0.4,0,0.8,0.1,1.2,0.1
		c1,0.2,1.9,0.4,2.7,0.8c0.8,0.4,1.4,0.8,1.9,1.4c0.5,0.6,0.9,1.2,1.2,2c0.3,0.7,0.4,1.6,0.4,2.5c0,0.9-0.1,1.6-0.4,2.3
		s-0.6,1.3-1,1.8c-0.4,0.5-1,1-1.6,1.4c-0.6,0.4-1.3,0.7-2.1,1c0.4,0.2,0.8,0.4,1.2,0.7c0.3,0.3,0.7,0.6,1,1
		c0.3,0.4,0.6,0.9,0.9,1.4c0.3,0.5,0.5,1.1,0.8,1.8l2.3,5.7c0.2,0.5,0.3,0.8,0.4,1C24.7,63.2,24.7,63.4,24.7,63.5z M19.5,45.3
		c0-1-0.2-1.9-0.7-2.6c-0.5-0.7-1.2-1.2-2.3-1.5c-0.3-0.1-0.7-0.2-1.1-0.2c-0.4,0-1-0.1-1.7-0.1h-2.9v8.7h3.4c0.9,0,1.7-0.1,2.4-0.3
		c0.7-0.2,1.2-0.5,1.7-0.9s0.8-0.9,1-1.4C19.4,46.5,19.5,45.9,19.5,45.3z"/>
	<path class="st0" d="M49.1,62.8c0.1,0.3,0.2,0.5,0.2,0.7c0,0.2,0,0.3-0.2,0.4c-0.1,0.1-0.3,0.2-0.5,0.2c-0.2,0-0.6,0-1,0
		c-0.4,0-0.7,0-1,0c-0.2,0-0.4-0.1-0.6-0.1c-0.1,0-0.2-0.1-0.3-0.2c-0.1-0.1-0.1-0.2-0.2-0.3l-2.2-6.3H32.6l-2.1,6.2
		c0,0.1-0.1,0.2-0.2,0.3c-0.1,0.1-0.2,0.2-0.3,0.2c-0.1,0.1-0.3,0.1-0.5,0.1c-0.2,0-0.5,0-0.9,0c-0.4,0-0.7,0-1,0
		c-0.2,0-0.4-0.1-0.5-0.2C27,63.8,27,63.6,27,63.5c0-0.2,0.1-0.4,0.2-0.7l8.7-24.1c0.1-0.1,0.1-0.3,0.2-0.4c0.1-0.1,0.2-0.2,0.4-0.2
		c0.2-0.1,0.4-0.1,0.6-0.1c0.3,0,0.6,0,1,0c0.4,0,0.8,0,1.1,0c0.3,0,0.5,0.1,0.7,0.1c0.2,0.1,0.3,0.1,0.4,0.2
		c0.1,0.1,0.2,0.2,0.2,0.4L49.1,62.8z M38,41.5L38,41.5l-4.5,12.9h9L38,41.5z"/>
	<path class="st0" d="M66.5,39.6c0,0.3,0,0.5,0,0.7c0,0.2-0.1,0.3-0.1,0.5c-0.1,0.1-0.1,0.2-0.2,0.3C66,41,65.9,41,65.8,41h-7.3
		v22.5c0,0.1,0,0.2-0.1,0.3c-0.1,0.1-0.1,0.1-0.3,0.2c-0.1,0-0.3,0.1-0.5,0.1c-0.2,0-0.5,0-0.8,0c-0.3,0-0.6,0-0.8,0
		c-0.2,0-0.4-0.1-0.5-0.1c-0.1,0-0.2-0.1-0.3-0.2c-0.1-0.1-0.1-0.2-0.1-0.3V41h-7.3c-0.1,0-0.2,0-0.3-0.1c-0.1-0.1-0.2-0.1-0.2-0.3
		c-0.1-0.1-0.1-0.3-0.1-0.5c0-0.2,0-0.4,0-0.7c0-0.3,0-0.5,0-0.7c0-0.2,0.1-0.4,0.1-0.5c0.1-0.1,0.1-0.2,0.2-0.3
		c0.1-0.1,0.2-0.1,0.3-0.1h18c0.1,0,0.2,0,0.3,0.1c0.1,0.1,0.2,0.1,0.2,0.3c0.1,0.1,0.1,0.3,0.1,0.5C66.4,39.1,66.5,39.3,66.5,39.6z
		"/>
	<path class="st0" d="M73.6,63.5c0,0.1,0,0.2-0.1,0.3c-0.1,0.1-0.1,0.1-0.3,0.2c-0.1,0-0.3,0.1-0.5,0.1c-0.2,0-0.5,0-0.8,0
		c-0.3,0-0.6,0-0.8,0c-0.2,0-0.4-0.1-0.5-0.1c-0.1,0-0.2-0.1-0.3-0.2c-0.1-0.1-0.1-0.2-0.1-0.3V38.6c0-0.1,0-0.2,0.1-0.3
		c0.1-0.1,0.2-0.1,0.3-0.2c0.1,0,0.3-0.1,0.5-0.1c0.2,0,0.5,0,0.8,0c0.3,0,0.6,0,0.8,0c0.2,0,0.4,0.1,0.5,0.1c0.1,0,0.2,0.1,0.3,0.2
		c0.1,0.1,0.1,0.2,0.1,0.3V63.5z"/>
	<path class="st0" d="M100.1,62.6c0,0.3,0,0.5-0.1,0.7c-0.1,0.2-0.2,0.3-0.4,0.5c-0.1,0.1-0.3,0.2-0.5,0.3c-0.2,0.1-0.4,0.1-0.5,0.1
		h-1.1c-0.4,0-0.7,0-0.9-0.1s-0.5-0.2-0.8-0.4c-0.2-0.2-0.5-0.5-0.7-0.8c-0.2-0.3-0.5-0.8-0.8-1.3l-7.9-14.7
		c-0.4-0.8-0.8-1.6-1.3-2.4c-0.4-0.8-0.8-1.6-1.2-2.4h0c0,1,0,1.9,0.1,2.9c0,1,0,2,0,3v15.6c0,0.1,0,0.2-0.1,0.3s-0.2,0.2-0.3,0.2
		s-0.3,0.1-0.5,0.1c-0.2,0-0.5,0-0.8,0c-0.3,0-0.6,0-0.8,0C81.2,64,81,64,80.9,64s-0.2-0.1-0.3-0.2s-0.1-0.2-0.1-0.3V39.6
		c0-0.5,0.2-0.9,0.5-1.1c0.3-0.2,0.6-0.3,1-0.3h1.7c0.4,0,0.7,0,1,0.1c0.3,0.1,0.5,0.2,0.7,0.3c0.2,0.2,0.4,0.4,0.6,0.6
		s0.4,0.6,0.6,1l6.1,11.4c0.4,0.7,0.7,1.4,1.1,2c0.3,0.7,0.7,1.3,1,2s0.6,1.3,1,1.9c0.3,0.6,0.6,1.2,0.9,1.9h0c0-1.1,0-2.2,0-3.3
		c0-1.1,0-2.2,0-3.3V38.7c0-0.1,0-0.2,0.1-0.3s0.2-0.2,0.3-0.2c0.1-0.1,0.3-0.1,0.5-0.1c0.2,0,0.5,0,0.9,0c0.3,0,0.6,0,0.8,0
		c0.2,0,0.4,0.1,0.5,0.1c0.1,0.1,0.2,0.1,0.3,0.2s0.1,0.2,0.1,0.3V62.6z"/>
	<path class="st0" d="M126.5,41.6c0,0.3,0,0.5,0,0.7c0,0.2-0.1,0.4-0.1,0.5c-0.1,0.1-0.1,0.2-0.2,0.3c-0.1,0.1-0.2,0.1-0.3,0.1
		c-0.2,0-0.4-0.1-0.8-0.4c-0.4-0.3-0.9-0.5-1.5-0.8c-0.6-0.3-1.4-0.6-2.3-0.8c-0.9-0.3-1.9-0.4-3.1-0.4c-1.4,0-2.7,0.3-3.8,0.8
		c-1.1,0.5-2.1,1.2-2.9,2.2c-0.8,0.9-1.4,2-1.8,3.3c-0.4,1.3-0.6,2.6-0.6,4.1c0,1.7,0.2,3.1,0.7,4.4c0.5,1.3,1.1,2.4,1.9,3.2
		c0.8,0.9,1.8,1.5,2.9,2c1.1,0.5,2.4,0.7,3.7,0.7c0.8,0,1.6-0.1,2.4-0.3c0.8-0.2,1.6-0.5,2.3-0.9v-7.5h-6c-0.2,0-0.4-0.1-0.5-0.3
		c-0.1-0.2-0.2-0.6-0.2-1.1c0-0.3,0-0.5,0-0.7c0-0.2,0.1-0.3,0.1-0.4c0.1-0.1,0.1-0.2,0.2-0.3c0.1-0.1,0.2-0.1,0.3-0.1h8.2
		c0.1,0,0.3,0,0.4,0.1c0.1,0.1,0.3,0.1,0.4,0.2c0.1,0.1,0.2,0.3,0.3,0.4c0.1,0.2,0.1,0.4,0.1,0.6v9.9c0,0.3-0.1,0.6-0.2,0.9
		c-0.1,0.3-0.4,0.5-0.8,0.7c-0.4,0.2-0.9,0.4-1.5,0.6c-0.6,0.2-1.2,0.4-1.9,0.6c-0.7,0.2-1.3,0.3-2,0.4c-0.7,0.1-1.3,0.1-2,0.1
		c-2,0-3.8-0.3-5.4-0.9c-1.6-0.6-2.9-1.5-4-2.7c-1.1-1.1-1.9-2.5-2.5-4.1c-0.6-1.6-0.9-3.4-0.9-5.4c0-2.1,0.3-3.9,0.9-5.6
		c0.6-1.7,1.5-3.1,2.6-4.3c1.1-1.2,2.5-2.1,4.1-2.7c1.6-0.6,3.3-1,5.3-1c1,0,1.9,0.1,2.8,0.3c0.9,0.2,1.6,0.4,2.3,0.6
		c0.7,0.2,1.2,0.5,1.7,0.8c0.5,0.3,0.8,0.5,1,0.7c0.2,0.2,0.3,0.4,0.4,0.6C126.4,40.9,126.5,41.2,126.5,41.6z"/>
</g>
</svg>
